<svg xmlns="http://www.w3.org/2000/svg" xmlns:xlink="http://www.w3.org/1999/xlink" width="274" height="190" viewBox="0 0 274 190"><defs><path id="a" d="M0 0h219v190H0z"/></defs><g fill="none" fill-rule="evenodd"><g transform="translate(55)"><mask id="b" fill="#fff"><use xlink:href="#a"/></mask><path fill="#F68A45" d="m71.63 76.468.129.198 2.263-1.24c-.92.107-1.624.638-2.392 1.042Zm64.037 72.453c-.201.062-.391.212-.282.319.3.292.34.808.795.938.087.024.379-.152.293-.25-.287-.327-.372-.832-.806-1.007Zm58.264-107.16c-.502.548-1.047 1.07-1.292 1.971.892-.524.975-1.315 1.292-1.97ZM96.295 81.579c-.107-.39.014-.772-.083-1.114-.053-.183-.151-.362-.373-.33a.769.769 0 0 0-.405.202c-.202.203.045.32.142.44.225.278.478.536.72.802Zm11.618-6.426c.312.372.431.823.909 1.076.07-.473.396-.914-.018-1.24-.148-.116-.552.093-.891.164Zm72.354-8.344c.314.56.789.777 1.213 1.06.453-.825.453-.825-1.213-1.06Zm-71.797 10.09c-.352-.624-.644-1.061-.848-1.536-.1-.235-.239-.234-.413-.243-.131-.007-.272.046-.208.201.268.647.61 1.233 1.47 1.577Zm-10.075 6.65c.197-.538.385-1.08.597-1.612.08-.204.106-.335-.144-.42-.243-.083-.38-.078-.467.223-.17.589-.116 1.181.014 1.809ZM37.252 24.883c.278.56 1.952 1.679 2.457 1.647.24-.015.459-.353.69-.547-1.035-.327-2.056-.505-3.147-1.1Zm125.569 98.653c.832.105 1.513-.308 2.336-.172-1.073-1.31-1.509-1.279-2.336.172Zm25.635-70.706c1.063-.133 1.739-1.192 1.378-2.049-.04-.094-.178-.21-.264-.204-.084.004-.189.138-.234.238-.295.655-.576 1.316-.88 2.015Zm-4.505 9.86c-.696.131-1.367-.291-1.653.108-.346.482.314.952.501 1.44.036.094.06.246.299.23.138-.55.392-1.085.853-1.778ZM114 77.796c-.998-.621-1.597-1.686-2.703-2.398 1.09 2.33 1.09 2.33 2.703 2.398Zm-30.826 76.662c-.283-.046-.548-.103-.815-.128-.305-.029-.613-.02-.919-.045-.3-.024-.426.043-.423.398.008 1.025.175 1.148 1.077.674.405-.212.803-.44 1.08-.9ZM197.714 24.74c.57-.297.924-.658 1.53-.588.47.054.976-.216 1.703-.402-2.574-.76-2.654-.735-3.232.99Zm-88.808 47.864c-.022.472-.073.79-.045 1.103.07.79 1.006 1.515 1.753 1.402.165-.025.33-.047.34-.227.005-.096-.09-.228-.177-.294a7.893 7.893 0 0 1-1.87-1.984ZM77.503 155.76c.926-.312 1.02-1.321 1.707-1.82-.362-.357-.796-.306-1.147-.465-.202-.09-.39-.074-.378.19.034.695-.393 1.35-.182 2.095ZM96.482 80c-.028.97 1.196 1.515.84 2.61.433-.698.994-1.312.52-2.17-.318-.577-.796-.582-1.36-.44Zm91.457-25.938c-.415.86-.76 1.573-1.102 2.287-.06.125-.197.292.016.376.397.155.77-.078 1.155-.128.379-.048.393-.362.376-.633-.037-.592-.05-1.195-.445-1.902Zm-8.158 12.724c-.948 1.616-.842 1.927.677 2.22.03.005.061.01.09.02.406.135.53-.157.694-.429.198-.332.023-.476-.227-.666-.431-.328-.961-.555-1.234-1.145Zm4.76-4.403c1.234.154 1.752-.064 1.658-.733-.109-.774-.341-1.531-.561-2.473l-1.097 3.206Zm-18.902 64.269c-.35-.914-.979-1.326-1.82-1.463-.552-.09-1.091-.188-1.427-.716-.11-.174-.265-.42-.505-.232-.207.164-.437.403-.48.64-.053.289.292.195.475.265.455.172.883.427 1.348.563.802.237 1.459.857 2.409.943ZM99.485 81.403c-.083.912-.361 1.555-.256 2.262.238-.033.038-.414.325-.365.212.036.214.254.157.363-.261.491.047 1.097-.389 1.572-.304.33.136.418.26.525 1.136-1.215 1.303-2.63.836-4.16-.705.163.033 1.212-.774 1.333-.226-.452.254-.86-.16-1.53ZM7.265 11.735c1.435-.89 2.824-.137 4.333.05-.891-1.28-2.126-1.356-3.35-1.376-.725-.012-1.236.294-.982 1.326Zm170.553 58.766c-.663.404-.681 1.142-1.1 1.624-.08.091-.138.203-.189.313-.122.266-.145.469.262.447.427-.023.863.03 1.284-.03.78-.108.982-.671.506-1.271-.263-.332-.49-.693-.763-1.083Zm-149.03 52.16c-.587.804-.581 1.725-.842 2.555-.118.372.17.31.443.324.792.04 1.428-.452 2.308-.543-.836-.686-1.253-1.577-1.91-2.335ZM180.62 69.523c-.548-.218-1.148-.628-1.759-.647-.532-.015-.821.714-.684 1.158.181.589.4 1.294 1.138 1.515.148.044 1.342-1.717 1.305-2.026ZM36.125 135.797c.591.399 1.044.71 1.41 1.127.16.183.347.341.624.106.69-.584 1.106-1.27.987-2.215-.057-.441-.198-.625-.647-.363-.736.431-1.484.843-2.374 1.345Zm143.93-64.092c1.727.633 2.44.331 3.145-1.271.08-.185.174-.4-.072-.448-.602-.117-1.22-.25-1.824-.222-.45.021-.432.609-.665.916-.22.289-.367.634-.585 1.025ZM88.26 96.412c.963-3.398 2.47-6.415 3.165-9.788-.663.276-.894.69-1.043 1.274-.336 1.314-.237 2.726-1 3.952-.818 1.315-1.463 2.713-1.122 4.562Zm-53.42-91.34c-.2.546.042 1.048.035 1.554-.007.454-.043 1.039.315 1.352.276.243.623-.223.986-.29.673-.124 1.42.106 2.063-.383l-3.4-2.233Zm32.993 54.35c-.52-.657-1.065-.068-1.559-.158-1.016-.186-2.035-.349-3.035-.638-.539-.156-1.036.312-1.258.686-.168.281.442.404.73.506.969.342 1.974-.023 2.967.095.73.086 1.546.258 2.155-.492Zm98.162 66.838c.515-.714.752-1.461 1.3-2.018-1.295-.253-2.498-.714-3.777-.383-.252.065-.65-.027-.682.305-.039.397.39.44.668.486 1.041.172 2.014.428 2.49 1.61ZM11.476 12.32c-.266.286-.154.546-.087.812.35 1.393-.108 2.139-1.528 2.481-.238.058-.486.079-.727.128-.24.05-.531.09-.603.352-.082.306.246.384.424.532.712.594 1.802.595 2.325 1.636.946-2.077.552-4.013.196-5.94Zm23.482 117.598c-1.022-1.01-1.95-2.042-2.765-3.355-.198 1.218-.808 2.035-1.266 2.917-.326.628-.15.831.496.81.211-.007.425-.001.635-.025.93-.106 1.86-.221 2.9-.347Zm127.343.162c.848-.9 1.726-1.625 2.566-2.39.215-.195.293-.407-.006-.59-.985-.604-1.945-1.27-3.118-1.472-.357-.062-.75-.137-.945.322-.173.406.12.611.349.858.838.906 1.918 1.723 1.154 3.272ZM36.365 15.494c.886-.767 1.843-1.36 2.98-1.572.581-.108 1.18-.313 1.161-.928-.016-.551-.611-.74-1.153-.865-1.027-.234-2.082-.092-3.104-.28-.553-.103-.563.117-.48.532.203 1.012.39 2.028.596 3.113ZM7.144 30.42c-.769-.084-.795.563-1.123.872-.71.67-1.39 1.378-2.027 2.118-.432.501-.748 1.042.107 1.543.576.338.828.95.948 1.61.046.251.125.632.413.61.263-.019.37-.37.401-.658.145-1.336.553-2.62.787-3.934.132-.734.563-1.407.494-2.161Zm23.69 100.24c.59.907 1.403 1.532 2.202 2.158.508.398.78 1.45 1.483 1.135.568-.254.899-1.112 1.254-1.747.465-.831.104-1.598-.835-1.8-.306-.065-.636-.122-.988-.011-.998.315-2.016.553-3.116.264ZM10.415 20.007c-1.224 1.12-3.058.823-4.248 1.954-.234.223-.81.176-.631.736.145.453.264.831.882 1.01.914.263 1.713 1.099 1.403 1.812-.265.61-.499 1.263-1.135 1.632-.205.118-.552.274-.409.525.254.444.834.46 1.254.698.24.138.28-.24.355-.405.307-.665.277-1.416.483-2.1.383-1.269.875-2.505 1.004-3.84.01-.115.065-.31.129-.323.966-.188.621-1.09.913-1.7Zm31.802 115.555c-1.721-1.404-3.717-2.283-5.313-3.725-.341-.308-.41.073-.5.261-.294.615-.74 1.122-1.125 1.674-.221.317-.764.568-.253 1.156.501.575 1.079.587 1.554.253.624-.438 1.358-.675 1.933-1.202.436-.4.837-.297 1.008.352.283 1.07.128 1.996-.78 2.725-.178.143-.464.304-.269.596.168.25.375.491.752.424.41-.072.717-.231.979-.601.528-.746 1.063-1.51 2.014-1.913ZM3.333 33.537c.402-.693 1.116-1.073 1.392-1.917.252-.766 1.145-1.24 1.92-1.635.399-.204.846-.489.833-.896-.013-.407-.577-.519-.922-.731-.026-.016-.051-.037-.08-.044-.381-.103-.717-.272-.706-.727.01-.373.265-.535.591-.725 1.18-.688 1.152-2.062.001-2.723-.46-.264-.895-.572-1.428-.916-.381 3.51-.762 6.942-1.601 10.314ZM87.047 99.45c-1.56 1.55-2.186 3.571-3.206 5.354a.377.377 0 0 0-.032.181c.002.637-.274 1.177-.555 1.73a68.58 68.58 0 0 1-1.746 3.22c-1.331 2.304-2.647 4.619-3.994 6.914-.343.584-.653 1.192-.523 2.11.7-1.062 1.233-2.024 1.97-2.83.82-.899 1.454-1.904 1.833-3.055.763-2.321 1.999-4.404 3.41-6.36 1.566-2.174 2.682-4.472 2.843-7.264Zm85.29-49.206c-.328.85-1.04 1.357-1.294 2.166-.597 1.907-1.579 3.611-2.715 5.25a21.449 21.449 0 0 1-2.214 2.69c-.27.279-.176.468-.087.716.057.158.144.269.326.111.719-.623 1.7-.654 2.503-1.099.599-.331 1.237-.645 1.534-1.264a29.692 29.692 0 0 0 1.964-5.38c.256-.986.778-2.064-.017-3.19ZM89.335 81.25c.131 1.393.275 2.64 1.123 3.677.165.201.426.494.572.327.531-.605 1.438-.747 1.787-1.586.349-.84.813-1.634 1.252-2.434.465-.845.161-1.893-.728-2.416-1.014-.597-1.732-.443-2.379.45-.334.462-.54 1.073-1.152 1.266-.465.147-.525.449-.475.716Zm78.73-34.522c-.275.687.23 1.065.585 1.524.793 1.021.959 2.227.71 3.431-.334 1.62-1.364 2.906-2.352 4.183-.818 1.056-1.67 2.074-1.355 3.553.035.165-.117.386.106.49.204.097.352-.071.475-.196 1.36-1.388 2.296-3.078 3.296-4.713.858-1.403 1.114-3.1 2.146-4.44.321-.416.263-.978-.14-1.404-.99-1.047-2.116-1.906-3.471-2.428ZM40.316 12.116c-.33-2.255-1.104-4.358-1.133-6.561-.018-1.343.048-2.776 1.56-3.654-.303-.046-.502-.097-.703-.103-1.452-.046-2.81.116-4.136.903-.637.377-.935.755-.982 1.354-.043.55.341.912.835 1.198 1.009.583 1.98 1.231 2.967 1.853.42.265.386.437.029.826-.596.648-1.41.77-2.13 1.095-.58.262-.913.756-1.19 1.201-.389.627.453 1.416 1.503 1.379 1.153-.041 2.298-.151 3.38.51Zm-34.915 9.78c1.262-1.296 3.182-1.028 4.523-2.1.408-.325 1.028-.613 1.05-1.05.025-.527-.561-.904-1.052-1.183-.455-.259-.916-.504-1.376-.754a.925.925 0 0 1-.497-.834c.01-.39.425-.377.712-.45.355-.09.725-.13 1.074-.242 1.027-.328 1.402-.97 1.17-1.946-.319-1.35-2.833-2.082-3.872-1.125a.504.504 0 0 0-.14.228c-.18.677-.482 1.353-.502 2.036a32.32 32.32 0 0 1-1.09 7.42Zm102.208 55.047c-.193-.811-1.474-.966-1.071-2.04.008-.023-.078-.116-.124-.118-.446-.022-.946-.298-1.325.024-.33.281-.662.666-.402 1.208.119.247.169.526.26.787.248.7.052 1.272-.522 1.71-.805.615-1.546 1.426-2.458 1.756-1.204.435-.981 1.261-.992 2.1-.003.246.047.49.05.736.008.756.115 1.491-.487 2.168-.409.46-.234 1.12.223 1.543.489.451 1.061.812 1.733 1.315-.066-.7.316-1.081.471-1.563.488-1.516.353-3.076.433-4.62.067-1.284.574-1.56 1.716-.914 1.134.643 2.254 1.315 3.529 1.845-.22-.862-.398-1.616-.916-2.265a14.5 14.5 0 0 1-1.397-2.058c-.292-.534-.882-1.143-.397-1.765.475-.61 1.06.058 1.676.15Zm36.634-10.76c-.204-1.064-.368-2.123-.78-3.133-.727-1.779-1.319-3.603-2.145-5.352-1.178-2.491-1.786-5.154-2.197-7.902-.343-2.293-.996-4.537-.775-6.888.125-1.32.088-2.618-.205-3.923-.424-1.878-.762-3.774-1.668-5.507-.21-.405-.536-.752-.617-1.228-.258-1.523-.99-2.869-1.612-4.263.277 1.475.41 2.972.425 4.45.017 1.68.13 3.295.451 4.966.47 2.444 1.53 4.663 2.153 7.029.494 1.878 1.53 3.614 1.584 5.594.046 1.69.13 3.365.59 5 .38 1.352.738 2.712 1.172 4.046.318.975.395 2.029.995 2.913.925 1.36 1.96 2.654 2.63 4.197Zm18.183 64.13c-.97.191-1.672-.046-2.379-.19-.684-.141-.912.195-.93.777-.01.273.061.549.105.822.218 1.364-.038 1.696-1.445 1.855-.214.025-.43.043-.646.051-1.66.062-2.66.91-3.283 2.443-.699 1.716-1.69 3.374-3.208 4.417a13.468 13.468 0 0 1-6.558 2.326c-.729.06-1.227.34-1.136 1.215.06.578.014 1.158-.359 1.665-.955 1.3-2.206 2.21-3.679 2.841-.29.125-.648.19-.744.583.074.017.145.058.18.037 2.654-1.563 5.576-2.619 8.103-4.443 1.948-1.407 4.073-2.557 5.877-4.187 2.044-1.846 4.382-3.348 6.275-5.388 1.359-1.465 2.264-3.252 3.827-4.823ZM173.01 93.62c.24 0 .48.013.72-.001 2.39-.15 4.784-.039 7.16.122 2.133.143 4.27.355 6.4.583 2.613.28 5.205.706 7.801 1.068 3.125.436 6.113 1.55 9.122 2.505.705.224 2.059-.507 2.112-1.36.045-.712-.753-.402-1.189-.519-.06-.016-.12-.027-.18-.043-3.62-1-7.281-1.78-10.988-2.404-3.821-.644-7.627-1.332-11.514-1.326-1.163.002-2.325.073-3.493.031-2.07-.074-4.05.371-5.951 1.344Zm-20.092 14.35c.215.438.764.497 1.02.883.63.945 1.564 1.316 2.649 1.425 2.352.236 4.603.963 6.907 1.425 3.465.696 6.78 1.921 10.217 2.727 1.869.44 3.223-.392 4.798-.885-8.37-2.675-16.72-5.286-25.59-5.575Zm48.713-82.48c-.606 1.781-1.891 3.23-2.42 5.038a35.454 35.454 0 0 1-3.684 8.385 8.586 8.586 0 0 0-1.035 2.624c-.227 1.024-.592 2.054-1.531 2.647-.535.338-.618.742-.692 1.285-.143 1.05-.202 2.143-1.282 2.808-1.16.713-1.24 1.033-.835 2.33.331 1.06.143 2.05-.678 2.454-.934.46-.976 1.037-.765 1.937.388 1.653.138 1.936-1.57 2.233-.917.16-1.276.627-1.113 1.536.14.775.352 1.536.508 2.308.272 1.349-.133 1.845-1.503 1.746-.523-.038-.79.118-1.002.574-.462.99-.884 1.952-.183 3.023.125.192.395.473.199.75-.225.315-.57.106-.857.073-.759-.088-1.505.546-1.187 1.075.242.403.69.692 1.076.995.363.285.605.29.911-.21 1.418-2.308 2.5-4.776 3.506-7.271.894-2.218 1.483-4.561 2.425-6.756 1.534-3.577 2.832-7.243 4.314-10.839.721-1.749.972-3.704 1.787-5.398 1.27-2.645 2.56-5.28 3.783-7.95.794-1.734 1.687-3.433 1.828-5.398Zm-35.576 70.445c1.37-.047 2.707.196 4.068.182 3.035-.032 6.073.264 9.111.4 1.777.08 3.517.538 5.281.593 2.205.069 4.276.78 6.426 1.099 1.679.248 3.312.891 4.923 1.476 1.843.668 3.8.94 5.607 1.705.218.093.334-.003.487-.114.853-.616 1.551-1.384 2.223-2.184.349-.414.258-.621-.232-.771-1.464-.449-2.919-.937-4.37-1.415-4.872-1.604-9.956-1.883-14.974-2.495-3.263-.399-6.58-.582-9.885-.448-1.312.054-2.662-.141-3.929.249-1.604.493-3.16 1.142-4.736 1.723ZM8.802 9.878c1.338.381 2.91.098 3.432 1.794.013.044.096.077.153.095.86.274 1.57.834 2.314 1.3 1.112.696 2.42 1.16 3.302 2.13 1.793 1.976 4.164 3.217 6.1 5.004 2.225 2.054 5.156 3.058 7.505 4.958 2.216 1.792 4.872 2.824 7.483 3.906 3.873 1.605 7.598 3.438 10.493 6.6.97 1.058 2.123 1.722 3.613 2.013 1.268.248 2.553.636 3.774 1.17 3.496 1.526 6.04 4.296 8.889 6.667.543.452 1.073.903 1.688 1.267 2.049 1.211 4.396 1.765 6.452 2.954 2.236 1.293 4.506 2.543 5.925 4.834.156.252.508.477.286.8-.246.36-.566.099-.892.024-.455-.105-1.023-.184-1.293.356-.103.207-.049.57.066.793.23.448.61-.09 1.04.023-.617.715-1.358.535-2.025.6-.29.028-.692-.063-.664.388.025.416.409.415.712.354 1.145-.23 2.264-.573 3.411-.808.785-.16 1.701-.19 2.213-1.041-.896-.456-1.456-1.335-2.209-1.999-1.885-1.661-3.767-3.32-5.987-4.568-3.031-1.704-5.647-4.016-8.503-5.981-2.639-1.816-5.441-3.379-8.227-4.925-2.305-1.278-4.755-2.323-6.936-3.826-1.609-1.11-3.341-2.04-4.83-3.323-1.445-1.245-3.214-2.018-4.704-3.194-.992-.782-1.988-1.537-3.228-1.896-1.193-.346-2.199-1.049-3.217-1.722-1.232-.814-2.48-1.58-3.865-2.138-1.833-.739-3.434-1.918-5.047-3.027-1.486-1.021-2.781-2.314-4.207-3.428-2.574-2.012-4.864-4.263-6.53-7.11-.46-.788-1.136-1.259-2.206-1.213-1.766.076-3.079.872-4.28 2.17Zm138.08 143.411c-.103.13-.164.172-.166.216-.173 4.083-.772 8.147-.578 12.247.09 1.901.338 3.807.276 5.703-.113 3.467-.372 6.931-.632 10.392-.143 1.902.152 3.815-.218 5.712-.089.458-.112 1.022.445 1.487.286-1.005.666-1.877 1.217-2.652 2.127-2.991 4.112-6.088 6.653-8.771.375-.396.795-.91.792-1.508-.014-2.715-.362-5.395-1.188-7.983-1.056-3.31-2.134-6.615-3.826-9.68-.937-1.697-1.838-3.415-2.775-5.163Zm60.758-3.628c-.286-.379-.589-.45-.863-.577-1.055-.492-2.14-.89-3.097-1.612-1.468-1.107-2.956-2.218-4.477-3.224-2.216-1.467-4.238-3.214-6.703-4.369-1.8-.843-3.756-1.35-5.444-2.451-.692-.451-1.5-.716-2.316-.911-2.911-.696-5.663-1.87-8.472-2.867-2.098-.746-4.251-1.275-6.454-1.308-1.428-.022-2.852-.144-4.28-.134-1.164.008-2.328-.066-3.49-.12-.262-.013-.502-.028-.649.228-.778 1.352-1.854 2.478-2.933 3.726.324.04.546.13.736.083 2.856-.701 5.679.066 8.415.53 3.668.622 7.373 1.284 10.931 2.477 1.808.606 3.664 1.107 5.404 1.87 3.66 1.601 7.332 3.158 11.083 4.533.607.222 1.177.56 1.795.736 3.138.892 6.302 1.693 9.32 2.962.436.183.914.265 1.494.428Zm7.497-68.053c-.295 0-.516-.043-.715.006-3.714.908-7.533 1.164-11.288 1.813-2.149.371-4.32.669-6.41 1.263-2.715.77-5.37 1.75-8.048 2.644-3.062 1.021-6.185 1.867-9.145 3.18-.896.398-1.793.79-2.69 1.184l.04.251c1.403 0 2.807.042 4.208-.01 2.262-.082 4.496.086 6.747.33 2.5.273 4.957.757 7.435 1.14 2.438.377 4.823.992 7.224 1.533 1.339.302 2.683.58 4.022.877.357.079.573-.066.773-.351 1.336-1.912 2.667-3.829 4.033-5.719 1.776-2.455 3.01-5.151 3.814-8.141Zm-188.02 38.378c-.774-2.368-2.154-4.14-3.509-5.89-1.471-1.9-2.523-4.034-3.775-6.055-.61-.983-.903-2.105-1.574-3.065-.728-1.042-1.639-2.066-2.036-3.213-.588-1.7-1.324-3.322-1.993-4.98-.964-2.386-2.21-4.635-3.36-6.924-1.219-2.43-2.075-4.975-3.028-7.497-.348-.922-.247-1.907-.661-2.825-1.07-2.374-1.61-4.899-1.865-7.486-.125-1.272-.184-2.558-.42-3.81-.458-2.437-.496-4.911-.776-7.363-.222-1.94.018-3.892.003-5.855-.198.076-.253.202-.27.361-.146 1.39-.09 2.843-1.224 3.932-.076.073-.059.234-.11.343-.097.213.218.61-.27.615-.024 0-.11-.495-.062-.74.05-.255.185-.522.358-.72.572-.654.803-1.403.844-2.263.061-1.27.457-2.514-.163-3.794-.38-.783-.018-1.9.617-2.45-.573 1.42-.4 2.757.366 4.04-.602-4.1.99-8.045.892-12.335-.612.77-.516 1.587-.966 2.181-.225-.77-.02-1.496.46-2.057.527-.617.68-1.224.574-2.011-.093-.694-.031-1.414.025-2.118.015-.19.034-.293-.082-.47-.605-.925-.636-2.228-1.853-2.758-.11-.049-.146-.27-.259-.494-.282 2.137-.468 4.213-.846 6.255-.515 2.778-.803 5.585-1.04 8.387-.197 2.33.179 4.692-.012 7.043-.263 3.23-.046 6.48-.441 9.71-.147 1.207-.252 2.435-.15 3.673.202 2.463.951 4.809 1.615 7.15.73 2.571 1.758 5.058 2.408 7.665.79 3.175 1.582 6.358 2.684 9.438.601 1.682 1.065 3.401 1.485 5.115.76 3.1 1.28 6.25 2.901 9.078.968 1.688 1.747 3.485 3.108 4.93 2.006 2.132 3.757 4.495 5.897 6.594.37-1.248 1.288-2.086 1.835-3.146.256-.497.467-1.033.031-1.449-.396-.377-.925-.478-1.535-.253-.769.282-1.593.421-2.399.593-.268.057-.596.062-.75-.222-.137-.253-.054-.562.124-.765.382-.435.596-.975 1.12-1.341.482-.338 1.19-.86.35-1.616-.117-.107-.026-.417-.09-.614-.12-.36-.2-.722-.368-1.084-.408-.876-1.161-1.239-2.123-1.716 1.686.108 2.59 1.04 2.864 2.655.051.3-.105.66.287.904.553.341.361.725-.01 1.12-.54.573-1.283.947-1.633 1.71-.202.44-.127.65.385.603a7.73 7.73 0 0 0 2.308-.593c.702-.297 1.4-.164 1.86.36.495.565.529 1.263-.013 1.927-.499.61-.961 1.257-1.376 1.927-.663 1.072-.57 1.224.613 1.45.283.055.536.047.814.02 1.354-.137 2.713-.509 4.214.193Zm174.156-18.08c-.475-.197-.877-.413-1.307-.532-3.478-.967-6.833-2.312-10.393-3.052-3.812-.792-7.654-1.264-11.514-1.479-3.17-.176-6.348-.406-9.538-.294-.964.034-1.962-.082-2.93-.02-2.11.132-3.86 1.358-5.661 2.25-3.41 1.685-6.077 4.489-9.192 6.638-.535.369-.418.64.035.978.772.577 1.489 1.092 2.555 1.205 2.081.22 4.168.472 6.244.738 2.517.323 4.98.877 7.45 1.365 2.483.49 4.862 1.475 7.34 2.065 1.17.278 2.389.468 3.47.953.955.43 1.808.648 2.789.26a4.082 4.082 0 0 1 2.007-.25c1.622.207 3.03-.397 4.38-1.116 3.015-1.603 5.798-3.588 8.688-5.396a34.457 34.457 0 0 0 5.577-4.313Zm-98.025-3.99c.061 3.344.006 6.339-.645 9.313-.284 1.296-.592 2.596-.55 3.99.062 2.093.582 4.143.47 6.24-.152 2.83.01 5.62.847 8.359.577 1.89 1.017 3.803.699 5.832-.249 1.587.155 3.087 1.028 4.463.354.56.812.929 1.418.636 1.56-.754 3.09-.21 4.468.29 1.23.446 2.037.08 2.872-.56.786-.603 1.626-1.058 2.524-1.474.907-.42 1.93-.354 2.805-.839 1.3-.72 2.782-1.025 4.184-1.347 1.254-.289 2.37-.487 3.263-1.507.848-.968 2.17-1.205 3.253-1.822.226-.129.55-.18.47-.57-.315-1.547-.278-3.177-1.027-4.624-.448-.865-.878-1.725-1.243-2.638-1.3-3.259-2.956-6.357-4.504-9.504-.815-1.656-2.01-3.12-2.675-4.81-.83-2.105-1.948-4.056-2.845-6.114-.69-1.58-1.393-3.17-1.84-4.847-.492-1.838-1.34-3.5-2.676-4.838a6.709 6.709 0 0 1-1.128-1.517c-.37-.669-.805-1.291-1.196-1.942-.655-1.088-1.626-1.986-1.901-3.314-.092-.444-.492-.95-.812-1.169-1.185-.814-2.471-1.491-3.752-2.158-.675-.352-1.027-.088-.92.653.149 1.019.003 2.02-.145 3.01-.202 1.35-.737 2.685-.733 4.024.01 3.038.458 6.067.29 8.784ZM87.81 80.178c-.812.508-1.51.777-2.07 1.43-1.07 1.245-1.751 2.738-2.757 4-2.519 3.158-5.754 5.533-8.975 7.91-2.335 1.724-4.896 3.084-7.368 4.589-.656.4-1.23.96-1.923 1.267-.996.441-1.747 1.129-2.45 1.911-1.096 1.219-2.294 2.349-3.672 3.221-2.751 1.743-5.596 3.339-8.238 5.251-1.046.757-2.377 1.255-3.066 2.334-.89 1.396-1.87 2.716-2.85 4.04-.285.383-.249.551.117.954.952 1.047 2.83 1.308 2.815 3.203 0 .145.185.326.327.434 1.067.816 1.94 1.893 3.172 2.478.728.346 1.201.925 1.753 1.455.595.571.765 1.5 1.347 1.927.677.497 1.184 1.175 1.855 1.604 1.085.693 2.032 1.631 3.438 1.832 1.484.21 2.921.627 3.998 1.857.523.597 1.413.964 2.084.396 1.245-1.053 2.872-1.518 3.998-2.722.963-1.03 2.187-1.828 2.838-3.13.363-.725.859-1.343 1.393-1.938 1.33-1.48 2.086-3.308 2.74-5.112.43-1.186.759-2.389 1.35-3.533 1.404-2.718 3.187-5.221 4.49-7.994.257-.548.793-.924.906-1.573.36-2.082 1.436-3.866 2.544-5.598.636-.994 1.57-1.793 1.494-3.118-.01-.167.086-.374.197-.509.522-.635.631-1.397.56-2.15-.067-.714.159-1.258.505-1.854.596-1.024 1.226-2.073 1.313-3.288.084-1.165.147-2.306 1.007-3.218.233-.246.356-.444-.002-.75-1.164-.997-1.554-2.346-1.702-3.82-.042-.427.354-1.174-.583-1.227-.035-.002-.059-.15-.092-.229-.068-.158.503-.266.056-.42-.315-.11-.283.196-.332.402-.045.193-.155.37-.248.581-.07-.094-.139-.146-.132-.186.026-.173.075-.342.163-.707Zm9.955 60.253c.446-.083.775-.169 1.11-.2 1.13-.106 2.199-1.004 2.314-2.102.128-1.22.29-2.466.17-3.674-.181-1.795-.035-3.59-.29-5.395-.398-2.813-.45-5.675-.665-8.515-.146-1.917.102-3.827.06-5.744-.043-1.996.714-4.001-.052-5.99-.296-.768-.308-1.556-.25-2.358.122-1.676.437-3.329.63-4.996.237-2.065.371-4.178 1.058-6.18.049-.14.047-.303.048-.455 0-1.746-.332-3.507.431-5.208.254-.564.207-1.17-.562-1.501-.725-.312-1.526-.767-1.957-1.297-.974-1.198-2.205-2.204-2.906-3.633a5.258 5.258 0 0 0-1.168-1.528c-.79-.727-1.123-.676-1.593.34-.53 1.147-1.154 2.238-1.971 3.208-.205.244-.32.503-.357.824-.232 2.058-.844 4.022-1.584 5.941-1.117 2.892-2.245 5.795-2.884 8.82-.447 2.112-1.361 3.926-2.492 5.686-1.177 1.832-2.519 3.56-3.245 5.657-.616 1.78-1.552 3.367-2.795 4.825-1.306 1.532-2.477 3.215-3.003 5.212a13.345 13.345 0 0 1-1.753 3.92c-1.207 1.848-2.48 3.654-3.728 5.475-.459.67-.331 1.214.443 1.43 1.067.3 1.59 1.155 2.038 1.984.402.745.926 1.284 1.59 1.738 1.071.731 2.377.767 3.572 1.07 1.864.474 3.68 1.126 5.602 1.433 1.008.161 2.005.441 3.042.572 1.382.176 2.823-.128 4.148.672 1.49.9 3.136.854 4.807.43.756-.192 1.344-1.285 2.192-.461Zm-18.32-85.598c-.421-.595-.65-1.038-.987-1.374-2.122-2.123-4.666-3.588-7.46-4.638-1.676-.63-3.323-1.33-4.727-2.456a95.45 95.45 0 0 1-4.897-4.177c-2.545-2.338-5.539-3.585-8.858-4.194-.885-.162-1.603-.547-2.252-1.124-1.033-.92-1.983-1.932-3.01-2.848-1.91-1.704-4.25-2.738-6.574-3.76a91.967 91.967 0 0 0-3.932-1.631c-3.428-1.322-6.098-3.948-9.362-5.597-2.04-1.03-3.687-2.697-5.533-4.046-.3-.22-.722-.613-1.057-.327-.566.483-1.211 1.111-1.114 1.886.29 2.32-.45 4.596-.08 6.94.318 2.01.459 4.06.788 6.075.14.862.214 1.687-.062 2.52a3.596 3.596 0 0 0-.052 2.09c.595 2.257.813 4.543.21 6.816-.253.95-.136 1.739.161 2.649.429 1.313.892 2.7-.29 3.979-.483.522-.234 1.504.378 1.845.99.552 1.99 1.093 3.102 1.38 2.58.665 5.123 1.45 7.843 1.456.967.003 1.958.025 2.934.122 2.27.225 4.462.867 6.7 1.261 2.449.431 4.856 1.01 7.372.99 1.758-.013 3.495.383 5.26.457 1.833.077 3.663.392 5.488.004 1.393-.297 2.904-.192 4.103-1.21.25-.212.68-.215 1.06-.324-.125.598-.772.285-.98.753l1.558.437c.094-.353-.513-.436-.192-.884.808.442 1.606 1.013 2.669.807-.508-.67-.62-1.63-1.776-1.89 4.466-1.42 8.91-1.814 13.569-1.987Zm116.44 16.054.028.021c-.4-.362-.919-.304-1.395-.385-.804-.136-1.604-.25-1.746.91-.018.143-.18.244-.427.094.14-.31.548-.673.236-.993-.233-.24-.643-.017-.969.04-1.235.217-2.472.43-3.703.67-1.265.248-2.578.252-3.803.68-2.247.786-4.557 1.215-6.928 1.356-.569.034-1.182-.112-1.613.466-.132.178-.498.171-.575-.007-.313-.724-.927-.507-1.426-.462-1.164.107-2.316.331-3.479.45-1.136.115-2.287.258-3.344.633-3.053 1.084-5.816 2.782-8.662 4.3-.732.39-1.478.75-2.13 1.29-2.881 2.39-5.317 5.21-7.821 7.965-1.925 2.118-3.748 4.315-5.352 6.686-.871 1.287-1.84 2.517-2.45 3.968-.11.26-.352.52.077.65.377.116.558.459.844.629 2.436 1.45 4.711 3.134 7.066 4.703.74.493 1.326 1.01 2.462.122 1.628-1.274 3.289-2.546 4.99-3.744 1.727-1.215 3.326-2.612 5.426-3.215.73-.21 1.376-.704 2.103-.926.446-.136.275-.815.795-.735.538.084.954-.193 1.395-.398 1.426-.66 2.952-1.056 4.418-1.61 1.452-.55 2.973-.988 4.364-1.648 2-.947 4.033-1.812 6.074-2.65.935-.385 1.658-.916 2.263-1.658.658-.81 1.27-1.655 1.898-2.488 2.066-2.735 4.046-5.527 5.636-8.574.215-.412.312-.92.996-1.264-2.376 4.735-5.4 8.817-8.459 13.114 1.353-.417 2.494-.863 3.662-1.22 2.755-.846 5.476-1.8 8.212-2.707 3.698-1.227 7.505-1.9 11.375-2.28a63.027 63.027 0 0 0 8.884-1.514c.347-.086.607-.19.724-.595.812-2.8 1.65-5.59 2.504-8.466-.896.342-1.73.654-2.559.978-1.614.632-3.208.527-4.74-.221-1.696-.829-3.38-1.284-5.333-.938-1.92.34-3.907.626-5.86.082-.607-.17-1.171-.439-1.5.418-.275-.336.248-.767-.25-.933-.632-.211-1.272-.397-1.908-.594ZM92.661 25.61c-.425.158-.846.327-1.275.473-2.623.893-5.275 1.64-8.08 1.66-1.136.01-2.286-.046-3.404.111-3.275.46-6.552.532-9.842.265-.466-.038-.923-.038-1.365.145-1.863.768-3.795.988-5.797.786-1.638-.166-3.266-.213-4.542 1.137-.177.187-.415.347-.312.608.399 1.002.246 2.104.556 3.1.373 1.204.72 2.388.716 3.662-.004 1.222.546 2.101 1.718 2.575.454.183.88.442 1.307.688 2.615 1.508 5.169 3.085 7.515 5.02 2.632 2.17 5.825 3.564 8.455 5.766.208.174.419.413.714.138.76-.707 1.81-1.05 2.404-1.972 1.068-1.66 2.67-2.85 4.174-4.006 2.286-1.756 4.474-3.57 6.202-5.86 1.603-2.124 3.602-3.733 5.912-4.966.727-.388 1.393-.82 1.845-1.456a43.84 43.84 0 0 1 5.462-6.339c.636-.607 1.269-1.26 1.666-2.071.077-.158.442-.288.163-.517-.272-.223-.504-.079-.68.197-.244.38-.508.747-.762 1.119l-.225-.107c.824-.916.964-2.127 1.754-3.21-.39.174-.603.281-.825.367a45.91 45.91 0 0 1-6.32 1.918c-1.719.39-3.446.86-5.248.685.952-.176 1.91-.327 2.855-.533 2.082-.453 4.186-.78 6.204-1.546 1.138-.431 2.213-.971 3.322-1.448.18-.077.249-.155.184-.33-.059-.157-.171-.266-.35-.203-.98.346-2.079.366-2.946 1.002-1.69 1.24-3.634 1.571-5.655 1.621-3.097.077-6.233-.096-9.001 1.72-.264.172-.644.182-.976.234-1.09.17-2 .766-3.122 1.086.691.588 1.09.028 1.493-.112 1.156-.4 2.4-.378 3.54-.899.777-.355 1.636-.726 2.566-.508Zm-54.99-1.46c.18-.418.707-.434 1.019-.902-.464.158-.743-.157-1.098-.167-.161-.005-.37-.22-.478.014-.068.148-.024.356-.006.534.034.335.493.218.57.514-.06.109-.377.073-.211.285.145.186.381.283.605.395.947.472 1.979.628 2.985.882.174.044.386.054.414.293.015.127-.097.193-.166.287-.169.23-.96-.027-.545.63.195.307.299.642.683.893 2.383 1.558 4.724 3.181 7.061 4.808 2.596 1.806 5.127 3.704 8.099 4.902.853.344 1.614.911 2.5 1.423-.135-.463-.349-.82-.32-1.154.183-2.064-.907-3.908-.988-5.929-.03-.728-.62-1.55.232-2.083.652-.407 1.15-1.124 2.062-1.103 1.79.042 3.584.077 5.374.037.896-.02 1.751-.315 2.529-.83-2.96-.024-5.793-.88-8.71-1.026-.666-.033-1.37-.178-1.65-.818-.262-.596-.722-.89-1.193-1.22-.729-.512-1.461-1.02-2.201-1.515-.573-.384-.79-.913-.73-1.585.086-.977.178-1.956.232-2.935.031-.55-.059-1.107-.009-1.653.235-2.556.85-5.096.141-7.677-.332-1.213.117-2.474-.138-3.715-.118-.571-.189-.907-.907-.978a43.124 43.124 0 0 1-4.472-.696c-2.25-.464-4.476-1.028-6.657-1.758-.275-.093-.487-.09-.816.098-1.47.838-1.44 2.337-1.28 3.542.316 2.364.88 4.706 1.395 7.048.394 1.793.98 3.539 1.252 5.367.185 1.246-.02 2.45-.028 3.67-.013 1.943.534 3.82.595 5.75.006.2.105.487-.206.52-.266.028-.35-.236-.369-.444-.187-2.04-.532-4.085-.493-6.122.044-2.226.066-4.393-.744-6.516-.447-1.174-.371-1.198-1.532-.924-1.067.25-2.022.71-2.829 1.457-.682.63-.24 1.4-.208 2.096.023.497.559.198.848.33-1.632.987-.213 2.258-.49 3.54.507-.362.815-.611 1.152-.813.336-.2.701-.353 1.053-.527.512-.254 1.364-.479 1.276-1-.11-.645-1.013-.634-1.624-.78-.294-.07-.61-.06-.916-.072-.25-.01-.396-.136-.471-.362.751.141 1.52.116 2.274.29.555.128 1.064.313 1.144.887.085.614-.427.896-.94 1.093-.777.3-1.512.688-2.201 1.149-.655.438-.624.71.059 1.109.244.142.508.18.788.218.645.09 1.3.185 2.067.603-1.053.244-1.922.445-2.784.64Zm135.706 117.96c-.8-1.046-1.162-2.32-1.79-3.457-.33-.596-.64-1.157-1.494-1.095.205.553.408 1.057.58 1.57.505 1.501 1.324 2.887 1.623 4.462-.272-.048-.291-.308-.354-.486-.625-1.766-1.432-3.457-2.116-5.197-.218-.554-.456-.719-1.124-.51 2.644 7.527 4.796 15.238 9.416 21.93a16.097 16.097 0 0 1-1.776-2.27c-1.387-2.184-2.32-4.579-3.314-6.957-1.55-3.708-2.99-7.446-4.107-11.305-.464-1.6-.619-1.75-2.329-1.887-.552-.044-1.125-.063-1.646-.227-1.02-.322-2.06-.326-3.103-.369-.206-.008-.509-.126-.429.24.155.712-.068 1.406-.009 2.117a83.642 83.642 0 0 0 1.244 9.028c.422 2.176.99 4.304 2.19 6.222a4.15 4.15 0 0 1 .648 2.012c-.332-.55-.559-1.149-.88-1.692-1.552-2.618-2.141-5.52-2.605-8.47-.462-2.935-.931-5.866-1-8.843-.01-.375-.124-.535-.548-.527-1.63.031-3.183.418-4.358 1.537-1.33 1.268-2.837 2.314-4.18 3.56-1.122 1.042-1.132 1.46-.25 2.707 1.163 1.646 2.57 3.058 3.955 4.5 2.225 2.317 4.643 4.428 7.352 6.142 3.542 2.24 7.45 3.639 11.565 4.46 1.722.345 3.432.737 5.22.353-1.54-2.433-2.923-4.916-4.07-7.53-.6-1.37-1.472-2.622-1.764-4.123.15-.003.199.105.25.22 1.544 3.414 3.116 6.811 5.107 10.002.691 1.109 1.014 1.392 2.244 1.271 1.257-.122 2.512-.255 3.769-.383 2.242-.228 4.329-1.103 6.54-1.452-.067-.369-.286-.515-.467-.668-1.52-1.275-2.845-2.768-4.024-4.319-2.86-3.763-5.563-7.649-8.241-11.545-.918-1.334-1.813-2.48-3.617-2.427-.324.01-.651-.166-.981-.237-.939-.203-1.88-.395-2.859-.6l1.758 4.222-.026.021Zm-27.83 31.623c-.025.241-.03.486-.077.722-.695 3.402-1.723 6.736-1.638 10.283.027 1.146.682 1.698 1.225 2.464.158-.645.29-1.272.271-1.895-.113-3.688.365-7.345.529-11.018.011-.262.126-.582-.344-.526.375-1.987.455-8.739.12-10.353-.716 1.59-1.193 3.272-1.84 4.892.191-1.053.548-2.051.801-3.075.33-1.335 1.395-2.428 1.188-3.946-.142-1.037.027-2.082.27-3.106.071-.301.116-.632-.067-.935-.64.284-.569 1.229-1.379 1.29.333-1.064 1.59-1.509 1.638-2.701.043-1.058.113-2.114.18-3.363a422.128 422.128 0 0 0-3.494 3.568c-2.362 2.439-4.36 5.143-6.204 7.972-.721 1.107-1.489 2.213-.688 3.619.072.125.051.3.087.45 1 4.206 2.674 8.133 4.948 11.922.34-2.543.595-4.991 1.419-7.33-.286 1.936-.495 3.898-.896 5.791-.516 2.436.666 4.139 1.785 5.98.075-.43.052-.852.079-1.271.141-2.245.719-4.417 1.203-6.597.212-.953.217-2.01.884-2.837Zm-7.658-15.411-.002-.001c-.997 1.085-1.803 2.314-2.623 3.527-.806 1.19-.106 2.305.265 3.441.82-1.63 2.096-2.9 2.975-4.435.72-1.257 1.77-2.241 2.743-3.305 1.256-1.37 2.465-2.787 3.763-4.124 1.074-1.105 2.079-2.26 2.044-3.988-.834.775-1.76 1.368-2.756 1.857.35-.392.75-.714 1.172-1.004.878-.605 1.747-1.309 2.057-2.308.435-1.4.704-2.847 1.545-4.093.03-.043-.042-.153-.07-.242-1.68.633-2.848 2.023-4.444 2.766-2.806 1.305-5.456 2.93-8.302 4.16-.421.182-.595.414-.737.833-1.095 3.219-.953 6.541-.878 9.859.006.27.01.586.266.871.619-1.417 1.578-2.498 2.454-3.636.132-.171.27-.36.528-.178Zm-21.768-4.04c-.18.112-.348.273-.545.327-2.631.722-5.228 1.48-8.042 1.285-2.013-.14-4.06.094-6.066-.273-1.624-.296-3.259-.286-4.883-.206-2.26.113-4.511.526-6.768.538-1.561.008-3.205-.093-4.625-.974-.696-.433-1.345-.257-1.979.13-.393.24-.773.503-1.161.753-.952.613-1.205.514-1.416-.549-.04-.206-.114-.393-.118-.62-.005-.313-.289-.52-.557-.664-.228-.122-.437.023-.56.197-.522.737-1.077 1.446-1.77 2.123 1.795.16 3.513.166 5.15.63 2.035.574 4.122.542 6.193.692 1.189.087 2.387.04 3.574.137 2.663.217 5.324.59 7.999.36 2.53-.217 5.051-.54 7.574-.842 1.368-.163 2.763-.253 4.085-.606 1.385-.37 2.778-.68 4.18-.96 2.369-.474 4.788-.707 7.088-1.512 2.806-.982 5.674-1.751 8.569-2.433.954-.224 1.855-.67 2.886-1.053-1.048-.4-1.929-.767-2.831-1.07-.968-.324-1.598.006-1.955.948-.36.947-.672 1.045-1.591.67-1.553-.636-2.967-.9-3.977 1.037-.48.92-1.288 1.475-2.465 1.11-.948-.295-1.893-.136-2.774.279-1.035.487-2.137.507-3.24.565.992-.67 2.241-.592 3.277-1.116.918-.465 1.876-.4 2.783-.15 1.108.304 1.707-.246 2.217-1.034.963-1.488 1.455-1.722 3.215-1.388.416.079.843.163 1.226.333.441.196.655.118.848-.331.671-1.554 1.4-1.823 2.994-1.21.79.304 1.538.796 2.48.649-.037-.117-.055-.205-.091-.284-.226-.494-.447-.976.212-1.338.693-.38.806.206 1.078.594.338.483.757.64 1.142.045.324-.502.82-.747 1.338-.94.854-.32 1.603-.819 2.273-1.4.835-.725 1.604-1.508 1.536-2.79-.057-1.06.617-1.697 1.7-1.546.748.104 1.303-.252 1.945-.41.315-.077.437-.41.781-.446 2.15-.225 3.72-1.37 4.987-3.063.651-.869 1.097-1.838 1.643-2.758.43-.723.604-1.602 1.558-1.996.844-.349 1.703-.407 2.569-.496.976-.1 1.224-.338 1.103-1.25-.056-.423-.195-.843-.193-1.263.003-.468.028-1.047.684-1.074.515-.02 1.035.118 1.555.169.342.033.841.432.983-.002.13-.394.327-.944-.045-1.396-.492-.599-.975-1.205-1.496-1.849-.481 1.207-.948 2.289-1.772 3.19-1.116 1.219-2.17 2.492-3.552 3.441-1.052.723-1.945 1.659-2.86 2.521-1.017.958-2.108 1.815-3.148 2.735-1.294 1.146-2.94 1.753-4.317 2.765-2.51 1.846-5.155 3.442-7.914 4.898-1.968 1.039-4.067 1.697-6.099 2.534-1.122.463-2.226 1.028-3.437 1.29-2.063.447-4.113.95-6.175 1.4-1.642.357-3.255.826-4.887 1.207-1.718.402-3.562.372-5.213.933-1.726.586-3.505.346-5.21.797-.5.132-1.04.224-1.55.183-3.233-.257-6.465.185-9.7-.055-1.557-.115-3.128-.062-4.693-.072-1.53-.01-3.06-.002-4.59-.002-.01.105-.018.21-.027.316 1.686.79 3.508 1.068 5.352.989 2.45-.105 4.891-.438 7.342-.566 2.188-.115 4.34.472 6.527.49.861.006 1.742-.201 2.583-.086 2.654.362 5.177-.103 7.642-1.016.48-.178.932-.254 1.421-.171Zm73.938-5.41c.83.82 1.649 1.654 2.494 2.46 1.354 1.293 2.488 2.81 4.026 3.919.409.294.771.364 1.278.216 1.297-.381 2.361-1.15 3.49-1.838 1.613-.983 3.16-2.115 5.15-2.34.953-.108 1.92-.356 2.787-.958-.338-.177-.572-.44-.933-.413-.08.168.457.634-.11.445-.732-.245-1.51-.302-2.215-.623-4.315-1.96-9.051-2.717-13.376-4.674-1.981-.896-4.116-1.446-6.052-2.466-.822-.433-1.6-.955-2.67-1.127.993 1.454 2.286 2.496 3.13 3.892-1.191-.94-2.022-2.23-3.143-3.232-.336-.299-.105-.873-.625-1.035-1.536-.478-3.069-.967-4.75-1.498.192.346.288.565.424.757a864.786 864.786 0 0 0 3.161 4.433c2.6 3.622 4.973 7.419 8.129 10.617a57.228 57.228 0 0 0 1.862 1.787c.525.486 1.192.23 1.51-.097.386-.398-.311-.585-.546-.836-.375-.403-.818-.736-1.177-1.166-2.09-2.497-4.066-5.083-6.078-7.642-1.764-2.242-3.27-4.692-5.348-6.686-.013-.013.041-.095.066-.147.254-.074.365.095.519.26 1.054 1.122 1.924 2.389 2.86 3.603 2.741 3.558 5.408 7.177 8.392 10.542.568.64 1.2 1.36 1.954 1.66.634.251 1.324-.496 2.025-.707.106-.032.26.01.289-.305-1.511-1.099-2.742-2.595-4.055-4.005-.845-.908-1.942-1.607-2.468-2.796Zm-127.05.644c-.478-.009-.646-.43-.91-.706-.724-.759-1.486-1.138-2.616-.848-.995.256-2.075.347-3.06-.205-1.815-1.016-3.436-2.263-4.738-3.903-.755-.951-1.754-1.579-2.814-2.159-1.904-1.042-4.114-.99-6.083-1.788-.347-.14-.78-.171-.848-.577-.078-.468.37-.734.704-.858.681-.256.9-.709.82-1.36-.047-.393-.098-.796-.599-.932-.715-.194-1.166.171-1.603.652-.493.542-.866 1.2-1.547 1.565-.376.2-.054.368.084.466.747.53 1.445 1.125 2.247 1.587 2.264 1.304 4.473 2.72 6.462 4.4 2.659 2.244 5.29 4.465 8.63 5.68.77.28 1.465.621 2.332.677.624.04 1.31.158 1.952.436 1.911.828 3.788 1.75 5.776 2.391 1.452.469 2.941.799 4.424 1.157 1.73.417 3.393 1.138 5.216 1.033l.317-2.298c-1.035 1.38-1.06 1.406-2.19.363-.725-.669-1.665-.892-2.482-1.362-.658-.38-1.297-.478-1.99-.003-.314.216-.737.238-1.158.159-1.401-.264-2.69-.851-4.02-1.319-1.15-.403-1.751-1.326-2.339-2.281.289-.008.448.188.587.392.718 1.06 1.83 1.503 2.97 1.907.49.174 1.003.304 1.461.54.903.464 1.798.56 2.713.095.606-.308 1.216-.293 1.759.05 1.049.661 2.35.821 3.252 1.819.526.582.6-.325.856-.547.23-.2.306-.564-.156-.709-.843-.265-1.67-.616-2.533-.775-2.956-.543-5.657-1.77-8.345-3.025-2.03-.95-4.022-1.98-6.025-2.987-1.914-.96-3.959-1.653-5.847-2.63-2.376-1.23-4.577-2.788-6.788-4.31-.994-.685-1.866-1.525-2.947-2.364.089 1.066-.397 1.567-1.11 1.922-.189.095-.4.194-.404.454-.002.159.13.179.25.21.887.236 1.76.548 2.66.698 2.227.37 4.284 1.083 5.945 2.672 1.37 1.31 2.535 2.8 4.176 3.864 1.393.903 2.778 1.093 4.299.82 1.442-.258 2.717.457 3.26 1.937ZM195.835 33.838c-.364 1.529-1.03 3.019-.636 4.935 2.797-4.817 3.934-10.054 6.496-14.695-.758.09-1.384.31-2.028.442-1.61.327-2.234 1.166-2.175 2.87.062 1.794.257 3.613-.628 5.3-.255.486-.511.964-1.063 1.181-.06-.17-.132-.308.052-.488.682-.667.866-1.556 1.167-2.429.361-1.048.175-2.087.135-3.082-.042-1.023.28-1.904.486-2.85-.605.835-1.095 1.699-1.377 2.676-.637 2.208-1.57 4.302-2.502 6.398-.982 2.208-2.254 4.264-3.095 6.558-1.2 3.276-2.792 6.401-4.321 9.543-1.898 3.896-3.053 8.077-4.657 12.09a18.28 18.28 0 0 1-1.398 3.104c-.385.676-.192.931.496 1.028.151.021.302.13.443.115.336-.037.884.381.966-.111.103-.616 1.013-1.002.435-1.816-.491-.691-.989-1.424-.962-2.346.301-.034.617-.14.903-.088 1.492.271 1.492.286 1.96-1.062.061-.174.082-.362.138-.537.373-1.168.545-2.464 1.18-3.469.824-1.307 1.42-2.708 2.088-4.072.86-1.756 1.459-3.63 2.334-5.39 1.09-2.192 1.856-4.55 3.433-6.487.743-.912.996-1.914.925-3.12-.06-1.036.146-2.117.534-3.123.155-.402.08-.944.67-1.075Zm-168.177 92.07c.468 1.527 1.43 2.745 2.47 4.053.515-.956 1-1.797 1.426-2.668.28-.573.078-1.242-.244-1.639-.345-.425-.987-.273-1.545-.055-.669.26-1.375.471-2.12.32-.536-.46-.048-.919.06-1.327.34-1.278.905-2.524-.11-3.767-.214-.263-.372-.46-.74-.587-1.759-.607-3.51-.013-5.346-.01.04.147.196.146.27.224 1.774 1.86 3.923 3.34 5.484 5.414.115.154.253.143.395.042Zm43.847-69.716c-.302-.103-.532-.496-.911-.28-.747.427-1.55.501-2.391.548-.435.024-1.13-.01-1.25.485-.099.413.565.549.87.829.133.121.592.067.319.482-.227.343.069 1.163.414 1.101 1.13-.203 2.335-.247 3.23-1.113-.425-.445-1.085-.201-1.616-.754.692.177 1.212.307 1.731.444.188.05.395.082.508-.086.106-.157.053-.352-.067-.513-.288-.389-.572-.78-.855-1.166.659.317 1.276.694 1.798 1.216.443.443.895.044 1.276-.086.488-.167-.36-.376-.07-.66.376.137.644.641 1.142.361.546-.307-.195-.726.066-1.067.282.119.368.09.567-.172.118-.155.284-.134.411-.063.257.143.494.322.743.489.254-.91.254-.903-.666-.894-1.616.015-3.177.64-4.815.416-.357-.049-.321.292-.434.483Zm16.01 20.747c-.191.83-.827 1.4-1.365 1.95-.555.57-.292.84.079 1.361.457-.995.74-1.953 1.516-2.656l-.734 1.896c.405-.26.5-.728.933-1.01.048.529-.542.75-.365 1.32.705-.384.842-1.132.73-1.626-.17-.74.266-.66.722-.846-.213.659-.403 1.234-.582 1.813-.05.16-.173.412.124.416.389.005.578.633 1.063.294.248-.173.302-.342.187-.62-.5-1.203-.658-2.504-1.044-3.74.013-.307.353-.723-.073-.889-.45-.174-.665.372-.752.631-.127.376-.39.601-.589.894.035-.62.317-1.157.688-1.66-.399-.146-.396.37-.701.24-.278-.336.505-.696-.025-1.045-.474-.313-.546-.86-.747-1.337-.263-.622-.525-1.279-1.308-1.415-2.11-.368-4.118.16-6 .977-1.233.536-2.425 1-3.768 1.096-.243.017-.772-.334-.76.297.01.523.135 1.244.717 1.192.45-.04.865.172 1.259.057 1.46-.427 2.968-.562 4.455-.822.682-.12 1.329-.434 1.99-.661 1.41-.485 1.702-.307 1.906 1.17.017.122.026.248.015.37-.117 1.237.303 2.424.353 3.645.005.11.051.25.293.212.531-.546.69-1.453 1.454-1.876.066.376-.482.53-.349.98l.678-.608Zm54.531-57.344c-1.384-.461-2.63-1.262-4.106-1.661-.005.396.516.343.527.734-.556-.243-1.273-.26-1.088-1.176a.244.244 0 0 0-.033-.175c-.117-.157-.835.233-.403-.376.222-.313.619.078.763.25.327.39.98-.172.999.214.033.693.503.495.833.618.385.144.777.118 1.215.08-.329-.646-1.15-.053-1.437-.739.82.27 1.816-.03 2.386.92.021.033.115.06.153.043.887-.411 1.806.034 2.66-.08 1.068-.142 2.085.107 3.13.073.927-.03 1.925-.137 2.818.12 2.183.632 4.436.727 6.65 1.097.576.095 1.095.1 1.658.104 1.841.012 3.681.142 5.523.178 1.486.029 2.783.73 4.172 1.098 1.818.48 3.645.71 5.51.595 1.726-.106 3.438-.422 5.177-.373.983.028 1.943.266 2.916.38 2.258.264 4.382-.407 6.566-.649.536-.06 1.08-.057 1.658-.086-.328-.494-.805-.525-1.318-.638-1.48-.325-2.978-.297-4.47-.422-2.316-.193-4.613.16-6.924.07a19.67 19.67 0 0 1-2.656-.297c-2.448-.432-4.898-.931-7.38-.996-3.25-.084-6.505.035-9.758.055-1.864.012-3.728.002-5.593.002l-.007-.36c1.485 0 2.974-.056 4.456.015 1.718.082 3.429 0 5.143-.04a27.98 27.98 0 0 1 3.83.16c.54.062.934-.253 1.43-.233 1.323.054 2.625.317 3.932.424 2.608.214 5.137 1.06 7.787.897.79-.049 1.596-.202 2.375.132.41.176.678-.253 1.103-.279 1.406-.085 2.797.13 4.206.067 1.416-.064 2.873.208 4.14.98.328.2.716.381 1.018.344 1.587-.199 2.922.551 4.264 1.128a18.607 18.607 0 0 0 4.867 1.338c.183.025.362.075.542.116.851.192 1.06.628.956 1.548-.288 2.561-1.445 4.785-2.475 7.065-1.173 2.596-2.46 5.144-3.555 7.773-.694 1.663-1.044 3.466-1.694 5.15-1.388 3.6-2.904 7.152-4.304 10.749-.756 1.944-1.313 3.966-2.078 5.906-1.234 3.133-2.585 6.219-4.435 9.057-.252.386-.466.796-.785 1.343 1.964-.697 3.931-.762 5.838-1.194 2.28-.517 4.604-.955 6.944-.33.914.245 1.822.56 2.677.964 2.099.99 4.263.754 6.389.306 2.256-.477 4.276 0 6.284.964 1.496.72 3.013.802 4.55-.032.748-.405 1.603-.617 2.417-.89.241-.08.49-.09.493-.428.001-.204.068-.397.32-.297.201.08.213.278.128.47-.15.336-.322.664-.45 1.009-1.023 2.732-1.798 5.54-2.507 8.365-1.068 4.251-3.228 7.942-5.82 11.42-.846 1.134-1.646 2.301-2.458 3.46-.094.134-.298.22-.207.462.19.507.177.54-.314.497-.266-.023-.39.09-.537.262-.901 1.05-1.876 2.047-2.693 3.16-.513.699-1.623.936-1.601 2.04-2.057.687-3.204 2.589-4.97 3.69-3.341 2.082-6.596 4.3-10.01 6.266-1.279.736-2.694 1.305-4.092 1.325-1.072.016-2.125-.09-3.153.263-1.617.557-3.241 1.104-4.824 1.75-.469.19-.814-.14-1.25.004-1.633.538-3.302.993-4.783 1.883-.599.36-1.218.61-1.875.748-.702.147-1.36.344-1.978.72-.29.177-.674.393-.997 0-.138-.168-.262-.315.1-.444 1.621-.575 3.378-.769 4.861-1.736.995-.649 2.226-.705 3.266-1.25.211-.11.425-.215.808-.409-5.96-1.667-11.652-3.64-17.804-4.274.413.87 1.219 1.104 1.737 1.651 1.409 1.49 2.945 2.855 4.363 4.34 1.503 1.577 3.252 2.89 4.918 4.29.444.374.97.752 1.206 1.247.389.818.784 1.537-.145 2.568-1.17 1.299-2.067 2.885-3.352 4.113-.892.852-1.634 1.79-2.364 2.842 2.24-.179 4.383.29 6.518.228 1.804-.053 3.559.17 5.272.513 1.79.357 3.544 1.033 5.22 1.778 1.523.678 3.108 1.195 4.686 1.595 1.836.466 3.47 1.308 5.193 1.991 1.654.657 3.19 1.552 4.837 2.21 1.302.52 2.184 1.633 3.345 2.324 2.67 1.591 4.948 3.735 7.605 5.316 1.518.904 3.233 1.477 4.863 2.192.214.094.548.06.537.39-.008.253-.223.409-.452.54-.862.49-1.804.91-2.753.977-1.945.138-3.538 1.08-5.042 2.09-1.686 1.132-3.455 1.964-5.369 2.588-.658.214-1.626.087-1.807 1.128-.004.027-.167.065-.23.038-.483-.206-.901.074-1.34.149-.108.303.471.372.181.773-1.236-1-2.499-.25-3.68.101-2.565.763-5.194 1.018-7.828 1.28-1.585.157-3.16.4-4.776.258-2.163-.19-4.219-.78-6.297-1.346-2.356-.64-4.57-1.604-6.665-2.803-2.598-1.487-5.013-3.263-7.11-5.415-1.484-1.522-3.088-2.929-4.449-4.572-.705-.85-1.441-1.673-1.879-2.709-.067-.158-.256-.42-.31-.403-.224.077-.56.208-.6.378-.297 1.279-1.348 2.243-1.471 3.59-.033.361-.082.76-.258 1.064-1.463 2.529-.116 4.29 1.56 6.009.529.541.77 1.32 1.33 1.86.177.17-.058.336-.056.507-1.197-1.574-2.24-3.27-3.724-4.658-.321.515-.14.909.066 1.342 1.434 3.018 3.294 5.815 4.515 8.949 1.244 3.19 2.458 6.371 3.05 9.765.224 1.275.31 2.556.418 3.85.396-.664 1.111-1.066 1.073-1.985-.187-4.543-1.54-8.77-3.313-12.906-.641-1.494-1.766-2.75-2.102-4.383.849.621 1.142 1.62 1.598 2.48 1.305 2.456 2.215 5.089 3.123 7.71.654 1.885.91 3.864 1.019 5.857.019.358.065.715.124 1.336.448-.817.77-1.42 1.104-2.014 1.621-2.876 3.183-5.792 4.267-8.908.7-2.01.755-4.168.61-6.304-.01-.152-.024-.306-.02-.458.002-.044.065-.086.143-.182.387.43.406.933.404 1.444-.012 3.167-.555 6.148-2.104 9.025-1.502 2.787-2.876 5.642-4.551 8.34-1.933 3.11-4.53 5.716-6.583 8.733-.675.992-1.367 1.972-2.054 2.955-.658.942-1.075 1.998-1.46 3.069-.095.263.026.772-.403.68-.31-.067-.784-.48-.779-.732.035-1.76-1.54-2.672-2.094-4.12-.421-1.1-1.082-2.107-1.638-3.158-.331.164-.16.424-.255.593-.038.07-.144.154-.21.147-.12-.012-.235-.096-.2-.25.56-2.415-1.317-3.982-2.107-5.919-.727-1.784-1.507-3.537-2.06-5.392-.433-1.453-.858-2.908-1.182-4.39-.431.065-.292.524-.759.63 1.073-1.873-.27-3.499-.347-5.255-.161-3.654-.368-7.291.84-10.872-.491-.132-.846.179-1.229.288-3.131.893-6.302 1.683-9.363 2.777-2.669.954-5.454 1.19-8.174 1.804-1.558.352-3.112.764-4.67 1.056-2.2.412-4.43.737-6.694.828-2.55.101-5.069.75-7.646.574-1.444-.099-2.891-.186-4.329-.353-1.537-.179-3.079-.118-4.616-.14-2.723-.039-5.355-.641-8.02-1.067-1.793-.287-3.643-.248-5.418-.601-2.434-.485-4.822-1.197-7.228-1.82-2.205-.571-4.244-1.56-6.31-2.485-.75-.336-1.593-.34-2.384-.525-.62-.145-1.26-.232-1.86-.468-3.24-1.27-6.045-3.18-8.624-5.52-1.558-1.414-3.377-2.552-5.203-3.638-1.663-.989-3.2-2.16-4.772-3.283-.858-.613-1.37-1.555-2.278-2.105-.497-.301-.918-.687-1.537-.78-.423-.062-.768-.273-.809-.839-.053-.74-.713-1.176-1.206-1.559-2.378-1.846-3.972-4.3-5.624-6.742-.87-1.286-2.012-2.38-3.194-3.413-2.014-1.761-3.868-3.687-5.673-5.658-1.162-1.268-2.24-2.619-3.447-3.841-1.97-1.995-3.111-4.488-4.314-6.936-1.178-2.398-1.618-5.03-2.208-7.613-.516-2.26-1.389-4.42-2.043-6.641-.716-2.432-1.292-4.908-1.967-7.35-.741-2.676-1.631-5.323-2.492-7.97-.975-3-2.154-6.07-1.819-9.309.45-4.346.35-8.711.676-13.06.108-1.427-.133-2.877-.092-4.314.099-3.517.56-6.999 1.145-10.468.336-1.99.53-4.004.858-5.996.202-1.223.533-2.426.817-3.635.44-1.878.627-3.787.804-5.705.212-2.292 1.11-4.455 1.453-6.725.295-1.946.401-3.926.783-5.853.16-.807.019-1.934 1.212-2.294 1.09-.329 1.82-1.22 2.727-1.836 1.05-.71 2.25-.808 3.44-.795.752.008 1.295.59 1.63 1.225 1.476 2.801 3.815 4.813 6.141 6.855 2.495 2.19 5.09 4.265 7.99 5.867 2.3 1.273 4.678 2.416 7.01 3.942.029-1.441-.19-2.676-.394-3.9-.376-2.247-.489-4.512-.688-6.774-.233-2.653-.824-5.272-1.178-7.917-.16-1.187-.167-2.404.471-3.516.117-.203.175-.468.173-.704-.006-1.132.744-1.367 1.652-1.432.094.154-.392.476.045.457.578-.024 1.141.094 1.73.053.86-.059 1.788-.305 2.62.073 2.067.94 4.3 1.33 6.446 2.005 1.587.5 3.313.317 4.887.926.282.11.494-.063.742-.395-1.108-.106-2.06-.37-2.635-1.328-.069-.115-.252-.209-.393-.226-1.738-.213-3.391-.969-5.19-.801A4.904 4.904 0 0 1 41.93.967c-.807-.488-1.613-.652-2.513-.56.03-.464.34-.426.667-.383.781.102 1.52.232 2.234.67.957.585 2.077.697 3.208.652 1.356-.054 2.605.591 3.912.702 1.073.09 1.724.563 2.326 1.313.25.31.641.112.963.212 1.331.412 2.669.81 4.022 1.139.493.12 1.03-.28 1.555-.008-.121.55-.559.096-1.009.337 1.402.21 2.674.187 3.914.685-.347.3-.616.141-.854.087-1.925-.438-3.893-.552-5.844-.793-.471-.058-.467.232-.423.48.292 1.66-.14 3.379.423 5.01.24.694.183 1.394.123 2.101-.164 1.921-.357 3.841-.474 5.765-.07 1.13.058 2.26-.177 3.394-.112.543.226 1.057.73 1.397.917.62 2.05 1.086 2.682 1.924.899 1.191 2.004 1.211 3.273 1.473 3.109.642 6.262.874 9.392 1.102 3.323.242 6.685.191 10.032-.205 1.497-.178 3.002-.366 4.497-.553 1.229-.154 2.473-.662 3.519-1.242 3.068-1.7 6.365-1.891 9.721-2.02 1.684-.063 3.361-.231 4.915-1 1.046-.519 1.9-1.417 3.143-1.554.283-.03.38-.205.178-.523-.871-1.37-.622-1.986.993-2.43.387-.106.68-.418 1.11-.422.165-.001.383-.106.4-.314.016-.2-.167-.278-.326-.388a39.385 39.385 0 0 1-1.99-1.475c-.32-.254-.608-.66-.498-1.023.089-.293.576-.257.918-.276 1.807-.1 3.476-.652 5.007-1.6.785-.487 1.748-.7 2.372-1.466-.313-.346-.736-.054-1.19-.339.36-.113.612-.226.875-.267.375-.058.675.123.83.457.176.375-.198.457-.402.601-1.533 1.08-3.24 1.813-5.005 2.41-.867.293-1.726.65-2.821.605.477.953 1.273 1.414 1.953 1.979.114.094.287.112.414.195.689.449.695.721-.03 1.102-.488.256-1.028.413-1.535.637-1.37.605-1.484 1.187-.447 2.198 1.374 1.339 1.365 1.733-.08 3.052.25.39.604.206.902.13 1.191-.302 2.372-.64 3.438-1.281.237-.143.488-.261.738-.382.163-.078.311-.03.386.129.091.193-.05.27-.208.322-1.258.409-2.362 1.18-3.65 1.524-.316.083-.672.136-.87.471-1.429 2.416-3.792 4.024-5.441 6.255-.416.563-.914 1.064-1.308 1.659-.733 1.104-1.628 2.022-2.853 2.67-2.598 1.374-4.577 3.46-6.42 5.73a23.43 23.43 0 0 1-4.916 4.57c-1.407.969-2.671 2.195-3.826 3.463-1.056 1.159-1.993 2.404-3.717 3.06 1.54.866 2.404 2.18 3.64 3.09.271.2.506.45.765.67.371.316.162.742.135 1.082-.03.388-.457.15-.701.18-1.443.172-2.868.4-4.251.878a4.184 4.184 0 0 1-1.621.216c-1.043-.074-2.007.387-3.002.394-1.84.012-3.399.982-5.14 1.291-.54.096-1.056.307-1.5.839 1.102.465 2.241.645 3.22 1.217l.017-.016c-1.322.098-2.422-.618-3.528-1.122-1.036-.472-2.02-.495-3.082-.433.755.606 1.63.883 2.558 1.06 1.327.253 2.668.505 3.831 1.235.298.187.818.381.698.872-.103.42-.598.177-.886.325-.157.08-.375.11-.466.235-.1.137.076.295.196.367.82.49 1.546 1.177 2.658.965.528-.1 1.101.035 1.633.225 1.402.501 2.368.172 3.177-1.083.108-.168.264-.333.112-.582-.274-.45-2.053-.842-2.527-.567-.838.485-1.693.941-2.54 1.41.351-.612.923-.915 1.48-1.239.214-.123.586-.21.205-.56l.017.025c.911-.485 3.36.01 3.858.786.213.33-.005.584-.186.833-.513.705-1.404 1.014-1.858 1.819-.127.224-.701.092-1.053-.057-.868-.366-1.768-.44-2.708-.477-1.197-.048-2.138-.838-3.12-1.444-.314-.193-.221-.458.055-.664.346-.256.71-.472 1.157-.516-.074-.426-.323-.542-.669-.692-1.329-.578-2.784-.68-4.131-1.156-3.263-1.153-6.637-.848-10.002-.917-3.932-.08-7.902.215-11.783-.708a65.314 65.314 0 0 0-8.75-1.442c-1.09-.107-2.156.114-3.228.217a7.271 7.271 0 0 1-2.926-.314c-.936-.3-1.885-.3-2.835-.379-2.45-.203-3.325 1.563-4.345 3.307-.968 1.657-.332 3.27-.183 4.896.048.523.143 1.002-.014 1.52-.32 1.06-.16 2.082.1 3.159.353 1.454.649 2.89.427 4.492-.165 1.193-.311 2.654.517 3.881.793 1.177 1.356 2.48 1.316 3.941-.016.601.295.933.743 1.16 1.853.934 3.765 1.427 5.905 1.41 3.048-.022 5.846-.749 8.622-1.913 2.481-1.04 5.033-1.86 7.774-2.102 3.033-.27 6.022-.88 8.793-2.272.476-.239 1.07-.28 1.618-.333 1.2-.118 2.273-.666 3.422-.941-.623.587-1.401.826-2.211 1.007-1.081.242-2.246.322-3.22.79-2.621 1.259-5.444 1.631-8.236 2.18-1.625.318-3.357.12-4.881.89-1.816.916-3.764 1.49-5.625 2.286-2.392 1.025-4.962.97-7.465.853-1.741-.081-3.552-.406-5.023-1.59-.476-.384-.812-.724-.755-1.436a4.326 4.326 0 0 0-.524-2.459c-.283-.525-.685-.974-.916-1.534-.58-1.41-.45-2.844-.248-4.291.045-.326.163-.63.072-.99-.265-1.055-.327-2.146-.687-3.198-.324-.948-.307-1.974.018-2.971.129-.397.069-.816.013-1.255-.22-1.763-1.018-3.57.225-5.288.281-.39.43-.885.66-1.3.472-.842 1.05-1.834 1.952-2.082 1.18-.325 2.477-.474 3.737-.165 1.79.44 3.566.836 5.443.406.775-.178 1.634-.13 2.435-.028 1.595.204 3.168.597 4.766.761 1.786.184 3.471.786 5.234 1.057 3.04.467 6.107.28 9.158.447 2.76.151 5.534-.152 8.203.044-.834-.857-1.905-1.246-3.194-.863-1.866.556-3.73.183-5.596-.005-1.47-.148-2.941-.39-4.413-.4-2.754-.016-5.44-.433-8.133-.945-1.871-.356-3.741-.732-5.618-1.062-2.933-.517-5.938-.093-8.855-.971-2.086-.628-4.225-1.06-6.18-2.066-1.006-.519-1.46-1.923-.729-2.747 1.02-1.148.67-2.377.31-3.509-.35-1.098-.342-2.087-.203-3.205.193-1.54.598-3.084.07-4.698-.344-1.054-.783-2.26-.43-3.346.48-1.48.12-2.854-.027-4.284-.256-2.484-.576-4.963-.668-7.462-.044-1.188.274-2.344.24-3.536-.03-1.077.05-2.175 1.19-2.795.22-.119.166-.327 0-.457-1.076-.846-1.884-2.05-2.99-2.764-1.66-1.07-3.247-2.316-5.161-3.023-.108.457-.073.902-.006 1.36.167 1.13.255 2.278-.019 3.392-.38 1.545-1.128 2.962-1.693 4.443-.6 1.575-1.57 3.026-1.745 4.743-.113 1.096-.5 2.135-.736 3.188-.202.901-.611 1.809-.799 2.768-.32 1.64-.653 3.285-1.119 4.888-.232.8-.485 1.535-.36 2.391.042.292.368.415.278.709-.606 1.975-.34 4.064-.782 6.053-.454 2.045-.623 4.106-.636 6.19-.015 2.487-.18 4.982-.04 7.46.193 3.396.402 6.795.945 10.166.457 2.837.632 5.721 1.796 8.411.29.67.484 1.4.608 2.12.394 2.289 1.246 4.435 2.182 6.522 1.613 3.595 3.403 7.11 5.13 10.654.442.91.957 1.812 1.067 2.815.109.989.848 1.65 1.236 2.45.789 1.627 1.753 3.202 2.62 4.814a59.357 59.357 0 0 0 5.348 8.25c1.303 1.68 1.795 3.83 3.285 5.383.057.06.066.167.095.253.38 1.132 1.104 2.1 1.95 2.844.948.832 1.671 1.79 2.39 2.785 1.498 2.077 3.304 3.91 5.388 5.338 1.975 1.354 3.983 2.639 5.814 4.194 1.533 1.301 3.075 2.592 4.797 3.664 2.31 1.44 4.61 2.833 7.188 3.823 2.558.984 4.922 2.459 7.423 3.603 1.958.894 3.794 2.055 5.85 2.726 1.431.467 2.896.838 4.348 1.243 2.374.662 4.75 1.317 7.125 1.974.089.025.177.064.267.071 2.504.195 5.01.009 7.515.033 3.813.037 7.628.053 11.442.038 1.416-.005 2.854.193 4.235.068 1.87-.169 3.72-.589 5.6-.826 1.653-.208 3.331-.533 4.982-.885 1.444-.308 2.852-.791 4.3-1.069 3.387-.648 6.74-1.372 9.987-2.582 2.963-1.104 5.953-2.128 8.698-3.728 1.35-.786 2.846-1.333 4.022-2.404 1.166-1.061 2.507-1.854 3.867-2.633 1.979-1.133 3.688-2.617 5.383-4.134 1.183-1.058 2.307-2.182 3.595-3.14 1.81-1.344 3.352-2.97 4.315-5.066.668-1.453 1.25-2.961 2.488-4.075 1.053-.948 1.077-2.231-.035-3.104-1.417-1.113-2.963-2.058-4.324-3.25-.534-.469-1.117-.881-1.748-1.373-.072.283-.136.428-.142.574-.065 1.572-.725 2.9-1.717 4.075-.694.823-1.388 1.606-2.657 1.566-.622-.02-1.254.278-1.573.952-.767 1.624-2.05 2.715-3.699 3.356-.724.282-1.36.737-2.07.998-1.836.674-3.709 1.453-5.599.1-.379-.271-.691-.014-1.03.128-.42.176-.667.626-1.194.644-1.465.05-2.89.077-3.403-1.729-.038-.135-.19-.237-.284-.358-1.384-1.787-2.343-3.835-3.23-5.869-1.006-2.307-1.892-4.659-3.023-6.923-1.262-2.526-2.77-4.89-4.253-7.28-.326-.526-.922-.929-.835-1.664.3.046.343.33.469.523.796 1.229 1.5 2.556 2.382 3.681 1.435 1.828 2.178 3.977 3.276 5.948 1.51 2.712 2.164 5.84 3.898 8.472.297.452.417 1.043.683 1.5.593 1.023 1.35 1.95 2.051 2.909.065.088.21.18.31.17 1.016-.087 2.093.288 3.026-.477.485-.398 1.01-.384 1.605.006.783.514 1.677.624 2.653.466 1.642-.266 3.016-1.16 4.528-1.725 1.397-.522 2.548-1.443 3.143-2.805.465-1.065 1.25-1.525 2.254-1.576.85-.042 1.463-.496 1.883-1.014 1.083-1.337 1.992-2.814 1.858-4.657-.023-.314.357-.577-.063-.963-.989-.91-1.964-1.83-2.97-2.724-1.808-1.606-3.975-2.787-5.482-4.761-.583-.763-1.278-1.488-2.099-2.067a350.467 350.467 0 0 1-6.5-4.702c-1.577-1.168-3.213-2.265-4.666-3.594.606 0 1 .412 1.437.736 2.437 1.809 4.822 3.681 7.4 5.306 1.625 1.025 3.2 2.157 4.488 3.644.8.924 1.648 1.822 2.632 2.585 1.647 1.277 3.344 2.52 4.822 3.976 1.954 1.926 3.962 3.767 6.169 5.397.763.563 1.743.857 2.29 1.683.497.75.833 1.614 1.97 1.62.229.002.455.385.683.59.319.29.608.625.966.853.48.305 1.229.517 1.553.186.42-.428-.123-.997-.425-1.442-.118-.174-.309-.297-.463-.447-1.105-1.07-2.414-1.892-3.524-2.968-.97-.942-1.888-1.948-2.901-2.83-1.83-1.595-3.507-3.35-5.22-5.05-1.942-1.923-3.965-3.732-6.196-5.259-2.505-1.714-5.044-3.384-7.516-5.146-2.099-1.496-4.422-2.684-6.29-4.503-1.193-1.16-2.67-1.957-3.933-3.03-1.02-.865-2.388-1.17-3.401-1.97-1.525-1.207-3.263-2.067-4.803-3.225-1.014-.763-2.115-1.469-2.802-2.583-1.22-1.98-2.264-4.095-4.151-5.567-.587-.458-1.022-1.139-1.785-1.365.564.705 1.228 1.317 1.674 2.087 1.654 2.858 3.519 5.519 6.19 7.567 1.5 1.15 2.795 2.56 4.203 3.818a29.565 29.565 0 0 0 3.799 2.86c1.128.72 2.31 1.421 3.166 2.505-1.672-.658-2.89-2.023-4.528-2.804-1.333-.636-2.307-1.992-3.512-2.938-1.19-.933-2.121-2.136-3.361-3.016-2.724-1.934-4.454-4.708-6.21-7.454-.613-.959-1.209-2.086-2.382-2.304-.891-.165-1.33-.58-1.701-1.27-.16-.298-.383-.568-.505-.878-.278-.71-.769-.534-1.003-.116-.425.758-.822 1.59-.46 2.516.095.242.456.47.206.727-.35.36-.373-.371-.72-.287-.19.046-.218-.216-.318-.35-.585-.787-1.306-1.4-2.476-1.545.385 1.12.969 2.007 1.602 2.843.861 1.138 1.127 1.648 1.288 3.024.014.114.026.243.086.334.551.837 1.055 1.68 1.982 2.233.87.518 1.16 1.61 1.811 2.33 1.568 1.728 2.529 3.787 3.543 5.829 1.067 2.145 1.37 4.59 2.585 6.67.722 1.236 1.41 2.476 1.833 3.848-.125.017-.276.037-.323-.102-.81-2.424-2.492-4.42-3.216-6.927-.588-2.036-1.545-3.985-2.568-5.896-.994-1.858-2.442-3.364-3.467-5.175-.208-.367-.729-.673-1.486-.83 1.417 1.805 2.373 3.62 3.452 5.359.08.128.197.238.312.338 1.335 1.166 2.094 2.757 2.592 4.34.543 1.724 1.314 3.352 1.842 5.075.547 1.788 2.002 3.154 2.42 5.026.138.619.352 1.258.687 1.79 2.113 3.364 3.823 6.939 5.608 10.475.778 1.54 1.126 3.316 2.014 4.742 1.242 1.997 1.483 4.178 1.947 6.345.102.477-.057.743-.56.983-1.588.758-3.372 1.227-4.465 2.792-.203.292-.574.298-.922.337-1.07.12-2.102.369-3.14.706-1.194.39-2.347.921-3.576 1.189-1.493.325-2.9.781-4.058 1.841-1.006.922-2.092 1.12-3.477.695-1.06-.325-2.147-.964-3.385-.523-1.826.65-2.752.033-3.255-1.848-.411-1.54-.45-3.066-.29-4.62.104-1.023-.086-1.97-.36-2.97-.735-2.674-1.41-5.38-1.246-8.199.108-1.865.006-3.711-.242-5.57-.225-1.682-.327-3.378.058-5.094.441-1.967.875-3.952.931-5.983.06-2.153.007-4.308.039-6.46.026-1.832-.111-3.628-.409-5.432-.192.611-.371 1.16-.27 1.875.139.969.291 2.04-.085 2.993-.65 1.653-.539 3.424-.877 5.126-.325 1.634-.387 3.344-.638 5.012-.16 1.06-.205 2.12.206 3.142.353.877.378 1.78.253 2.695-.347 2.564-.36 5.156-.35 7.724.014 3.107.394 6.213.643 9.318.068.85.339 1.692.338 2.537-.003 2.322.067 4.648-.146 6.967-.124 1.358-1.404 2.482-2.741 2.704-.81.134-1.631-.235-2.403.182-1.148.622-2.356.695-3.649.55a6.028 6.028 0 0 1-2.771-1.026c-.363-.243-.798-.236-1.242-.247-1.44-.037-2.958.097-4.288-.39-1.73-.635-3.576-.664-5.305-1.378-1.187-.49-2.587-.684-3.914-.92-1.245-.221-2.14-.997-2.664-2.16-.374-.831-.905-1.574-1.71-1.969-1.391-.682-1.558-1.137-.764-2.446 1.072-1.766 2.45-3.313 3.56-5.05.342-.536.733-1.058.83-1.993-.475.533-.837.838-1.071 1.22-1.175 1.922-2.564 3.648-4.305 5.1-.33.276-.614.589-1.024.743-.732.276-1.359.716-1.95 1.219-1.235 1.05-2.527 1.025-3.664-.148-.857-.883-1.868-1.356-3.076-1.466-1.634-.149-2.935-1.05-4.074-2.079-.936-.845-1.98-1.592-2.604-2.819-.876-1.72-2.798-2.399-4.19-3.62-.822-.72-1.847-1.286-1.83-2.599.004-.266-.22-.473-.419-.58-.845-.45-1.504-1.15-2.292-1.662-.468-.303-.505-.57-.292-.958.22-.402.46-.81.766-1.148.782-.861 1.428-1.823 2.034-2.802.363-.586.763-1.1 1.325-1.474a516.507 516.507 0 0 1 5.99-3.946c1.772-1.145 3.589-2.222 5.347-3.387 2.077-1.377 3.478-3.482 5.725-4.803 2.113-1.242 4.311-2.419 6.341-3.843 2.41-1.69 4.76-3.455 7.132-5.194 1.556-1.14 2.624-2.74 4.047-4 .375-.332.88-.727.777-1.387l2.307-3.042c-1.24.688-2.124 1.623-2.287 3.058-.547.524-1.366.698-1.787 1.38-.533.864-1.356 1.393-2.19 1.91.032-.224.122-.425.332-.522 1.269-.58 1.613-2.2 2.999-2.656.1-.033.136-.262.197-.401.627-1.419 1.176-2.894 2.875-3.429.355-.112.088-.315.006-.496-.38-.836-.6-1.711-.77-2.618-.227-1.214-.082-2.456-.392-3.66-.15-.588-.395-.79-.974-.541a14.462 14.462 0 0 1-4.655 1.168c-2.043.162-4.106.59-5.858 1.849-.344.248-.759.418-1.163.561-2.664.95-5.334 1.88-8.001 2.818-.958.337-1.895.724-2.902.924-1.548.307-3.103.51-4.68.554-1.568.045-3.05.532-4.481 1.067-2.176.815-4.427 1.316-6.681 1.765-1.92.382-3.69 1.09-5.5 1.775-2.704 1.025-5.512 1.732-8.364 2.278-1.97.378-2.505 1.68-1.883 3.56.432 1.305.934 2.576.87 4.068-.059 1.381.612 2.86 1.693 3.733 1.118.904 1.383 1.89 1.392 3.174.008 1.176.39 2.281 1.02 3.285.907 1.45 2.173 2.663 2.818 4.291.14.354.372.737.837.79 1.472.165 2.998.168 4.38-.21 1.859-.511 3.482-1.683 5.228-2.524 1.54-.742 2.943-1.741 4.563-2.336 1.027-.377 2.109-.526 3.103-1.101 1.266-.733 2.188-1.85 3.41-2.618 2.316-1.453 3.807-3.883 6.295-5.203 1.663-.883 3.324-1.812 4.927-2.82.134-.084.36-.024.542-.031-.048.34-.371.412-.595.523-1.379.683-2.77 1.344-4.017 2.253-1.507 1.097-3.276 1.86-4.448 3.38-.613.795-1.37 1.41-2.17 1.991-.598.434-1.234.83-1.77 1.332-1.27 1.194-2.674 2.11-4.393 2.537-.888.22-1.798.469-2.568.977-1.856 1.224-3.9 2.1-5.83 3.187-1.942 1.094-4.091 1.287-6.316 1.15-.99-.062-1.458-.489-1.738-1.294-.444-1.276-1.358-2.267-2.159-3.28-1.132-1.436-1.55-3.013-1.661-4.75-.056-.868-.213-1.692-1.062-2.177a1.589 1.589 0 0 1-.583-.58c-.81-1.353-1.415-2.77-1.36-4.39.014-.401-.007-.781-.156-1.174a38.074 38.074 0 0 1-.912-2.697c-.377-1.267.073-2.343 1.253-2.982 1.436-.777 3.098-.728 4.621-1.202 1.691-.525 3.479-.822 5.078-1.541 1.695-.763 3.425-1.27 5.214-1.694 1.94-.46 3.923-.737 5.81-1.452 2.331-.885 4.738-1.487 7.261-1.562.883-.027 1.773-.176 2.64-.363 2.379-.514 4.584-1.566 6.9-2.28.946-.292 1.874-.642 2.81-.965-1.314.082-2.543.615-3.834.509-1.025-.084-2.02-.104-3.03.092-.984.19-1.978.334-2.969.5.604-.653 1.437-.587 2.211-.708 1.51-.235 3.01-.34 4.55-.226.836.061 1.698-.468 2.566-.548 1.637-.152 2.657-1.545 4.163-1.924.551-.14.593-.581.516-1.018-.324-1.858-.025-3.56 1.176-5.062.054-.068.074-.165.102-.251.008-.025-.012-.06-.018-.09-1.527-.299-1.527-.299-1.724-1.152.585.529 1.185.795 1.904.749.198-.013.467.005.567.236.13.303-.167.416-.317.598-.625.758-1.263 1.515-1.435 2.526-.165.974.234 1.434 1.201 1.285 1.119-.173 2.158-.559 3.205-1.052 2.024-.952 4.194-1.556 6.474-1.09.681.139 1.096.746 1.33 1.422.363 1.05.902 1.938 2.09 2.225.487.118.304.523.336.839.142 1.392.262 2.792 1.068 4.03 1.341-1.576 3.215-1.343 4.139.482.199.393.33.708.86.27.466-.383 1.138-.159 1.71-.29.763-.174.92.556 1.254.99.587.763 1.429.84 2.112.14.82-.84 1.984-1.138 2.867-1.926 1.237-1.103 1.333-1.02.71-2.569-.327-.813.315-1.256.641-1.804.268-.45.655-.271 1.047-.06.315.168.694.225 1.048.315 1.217.31 1.628-.032 1.568-1.286-.005-.12.068-.27.018-.355-.164-.272-.088-.455.145-.622.341-.245.52.055.696.234.6.609 1.208 1.215 1.759 1.868 1.385 1.643 3.08 2.954 4.743 4.272 1.992 1.579 3.294 3.631 4.559 5.745.443.742.847 1.506 1.688 1.896.625.289 1.357.266 1.718-.196.344-.441.247-1.15-.064-1.752-.405-.785-.217-1.69-.173-2.493.117-2.165-.22-4.238-.638-6.347-.33-1.659-.275-3.393-.246-5.108.186 4.556 1.802 8.962 1.242 13.604.481-.46.335-1.048.46-1.562.692-2.844.578-5.692.05-8.558-.332-1.81-.48-3.654-.744-5.479a61.68 61.68 0 0 1-.63-7.662c-.044-2.206-.222-4.409-.382-6.612-.21-2.877-.531-5.737-.969-8.585-.41-2.674-.314-5.358-.187-8.043.023-.506.003-1.014.144-1.524.295.766.247 1.558.187 2.337-.179 2.328-.047 4.632.185 6.957.24 2.406.743 4.767.878 7.199.181 3.262.501 6.527.589 9.792.098 3.661.724 7.253 1.214 10.855.282 2.073.486 4.146.506 6.214.015 1.534-.466 3.073-.72 4.61-.04.243-.072.492-.058.736.043.734.518 1.102 1.238.977 1.536-.266 3.002-.737 4.475-1.26 1.638-.581 3.353-.987 5.054-1.404.9-.22 1.804-.69 2.662-1.114.914-.451 1.913-.67 2.795-1.189 1.52-.893 3.1-1.687 4.596-2.616 1.387-.862 1.79-2.297 1.192-4.348-.883-3.03-1.924-6.012-3.26-8.877-.304-.653-.818-1.21-1.248-1.803-1.416-1.952-1.565-4.352-2.34-6.53-.73-2.054-.98-4.165-1.029-6.33-.045-1.997-.99-3.789-1.609-5.627-1.021-3.032-2.129-6.038-2.556-9.21-.247-1.84-.073-3.73-.253-5.593-.08-.827-.141-1.666-.71-2.32-.326-.374-.185-.738.103-.822.538-.157.672-1.049 1.158-.837.438.192-.181.792-.035 1.249.138.435.08.951.28 1.347.986 1.964 1.575 4.083 2.418 6.104.963 2.307 1.628 4.766 1.445 7.295-.202 2.798.324 5.48.777 8.205.4 2.4.945 4.742 1.866 6.98.702 1.704 1.567 3.334 2.182 5.086.365 1.041.688 2.088.979 3.147.793 2.885 1.474 5.814 3.282 8.3.392.538.575 1.221 1.144 1.639.381.28.726.396 1.149.019.976-.873 2.238-1.333 3.194-2.278.75-.74 1.212-1.823 1.074-2.888-.223-1.721.015-3.3 1.495-4.546 1.174-.99 2.434-1.86 3.61-2.836 1.598-1.328 2.513-3.11 3.11-5.076.185-.61.443-1.182.481-1.844.055-.942.652-1.678 1.123-2.459.564-.933 1.242-1.767 1.918-2.619.574-.722.763-1.78 1.387-2.557.178-.221-.067-.307-.153-.45a4.348 4.348 0 0 1-.602-1.547c.562.057.28.603.712.676.218-.136.089-.506-.018-.559-.678-.33-.806-1.165-1.55-1.483-1.88-.804-3.196-2.44-4.917-3.501.9.226 1.603.818 2.276 1.366.926.753 1.878 1.415 2.957 1.922.876.411 1.504 1.116 2.157 1.825.655.71 1.75.808 2.504 1.474.489.43.765 1.17 1.562 1.212.058.956.75 1.76.627 2.77-.213 1.746-.805 3.375-1.468 4.986-.279.675-.57 1.345-.873 2.01-.551 1.207-1.724 1.656-2.82 2.079-1.014.39-1.896.863-2.613 1.683-.124.142-.686 1.058-.775-.114-.003-.046-.324-.068-.506-.102.25-.396.855-.172 1-.617.307-.932.584-1.913.365-2.873-.204-.895.12-1.578.61-2.173 1.088-1.323 2.174-2.692 2.782-4.257.55-1.414.366-2.974-.808-4.304-.433.78-1.063 1.336-1.226 2.247-.155.866-1.107 1.255-1.536 2.016-.773 1.375-1.529 2.681-1.94 4.282-.593 2.296-1.402 4.662-3.446 6.212a80.214 80.214 0 0 0-3.877 3.104c-1.196 1.029-1.357 2.309-1.204 3.646.211 1.844-.64 3.784-2.316 4.625-.61.307-1.173.678-1.737 1.048-1.267.833-2.127.603-2.819-.784-.096-.192-.18-.392-.294-.573-.358-.57-.73-1.133-1.239-1.92.15 1.043.496 1.775.587 2.575.303 2.7-.652 3.677-2.802 4.695-1.28.607-2.447 1.395-3.743 1.973-2.812 1.253-5.665 2.362-8.646 3.136-.347.09-.75.044-.862.521-.042.178-.226.211-.373.222-1.825.136-3.496.972-5.316 1.16-.437.045-.57-.282-.884-.401-.019.884-.81.875-1.47 1.228 2.666 1.385 4.888 3.264 7.442 4.669a23.663 23.663 0 0 1 5.336 4.022c1.083 1.084 2.502 1.838 3.783 2.722.35.24.516-.06.603-.325.549-1.673 1.87-2.847 2.759-4.3 2.027-3.31 4.966-5.853 7.415-8.807 1.773-2.138 3.872-3.924 5.945-5.737.612-.534 1.4-.889 2.145-1.246 2.605-1.247 5.026-2.855 7.737-3.896a11.966 11.966 0 0 1 2.752-.682c1.467-.188 2.905-.55 4.378-.683.398-.036.858-.175 1.19-.033 1.209.519 1.676-.255 2.083-1.106.464-.972 1.445-1.71 1.343-2.95-.01-.126.204-.367.34-.39.443-.071.616-.405.76-.726 1.118-2.489 2.42-4.9 3.263-7.505 1.473-4.554 3.396-8.917 5.42-13.25 1.395-2.983 2.85-5.947 3.907-9.083.409-1.214 1.266-2.222 1.812-3.398 1.033-2.227 2.008-4.468 2.707-6.82.37-1.245 1.149-2.294 1.607-3.498.232-.607.341-.87-.428-1.269-1.137-.59-2.339-1.076-3.527-1.29-1.666-.3-3.415-.428-5.13-.143-.544.09-1.137.269-1.63.237-2.024-.13-2.21 1.28-2.55 2.679-.068.275.152.885-.43.817-.133-.015-.04-.656.1-.998.09-.226.15-.464.237-.691.62-1.624.225-1.31-1.023-1.409-.426-.033-.543.146-.674.616-.34 1.224-.064 2.4.001 3.598.051.933-.263 1.865-.636 2.643-.712 1.482-.926 3.15-1.927 4.528-1.51 2.077-2.782 4.327-4.595 6.18-.28.287-.584.557-.826.873-.438.57-.6 1.2-.252 1.884.725 1.427.516 2.768-.368 4.05-.119.172-.22.355-.364.588 1.614.331 2.314-.813 3.11-1.739.49-.567.607-1.322.864-2.01.49-1.31 1.082-2.581 1.59-3.885.676-1.744 1.637-3.376 1.97-5.482.238.788.003 1.954-.479 2.965-1.08 2.268-1.98 4.61-2.86 6.96-.398 1.059-.924 1.99-1.743 2.775-.977.936-1.992 1.1-3.28.532-1.03-.455-2.128-.774-3.119-1.299-1.148-.608-2.012-1.617-2.941-2.506a8.639 8.639 0 0 0-2.334-1.602c-2.046-.965-3.732-2.395-5.321-3.98-.896-.893-1.566-1.938-2.34-2.913-.16-.202-.201-.36-.099-.574l-.036.036c.57.102.736.638.997 1.016a17.745 17.745 0 0 0 6.561 5.793c1.126.582 2.226 1.168 3.145 2.067.268.261.33.97 1.092.528.41-.238.642-.433.757-.871.092-.351.295-.673.436-1.012.66-1.594 1.933-2.833 2.581-4.437.265-.654.449-1.43.923-1.893 1.817-1.776 2.882-3.943 3.492-6.337.567-2.226 1.491-4.43.84-6.813-.042-.15-.062-.349.106-.397a.3.3 0 0 1 .376.298c-.07.843.316 1.628.148 2.517a39.15 39.15 0 0 1-.692 3.035c-.392 1.438-.651 2.93-1.418 4.256-.769 1.33-1.805 2.52-2.517 3.825-1.172 2.147-2.515 4.196-3.62 6.375-.62 1.22-.195 2.088 1.193 2.409.267.062.73.674.895.075.28-1.023.942-1.926.897-3.06a4.046 4.046 0 0 1 .31-1.671c.833-2.066 1.894-4.016 3-5.942.13-.227.121-.603.65-.673-.644 1.175-1.315 2.227-1.815 3.355-.638 1.44-1.681 2.75-1.688 4.412-.006 1.425-.523 2.693-1.015 3.982-.13.34-.383.639-.654.367-.48-.481-1.218-.435-1.661-.96-.189-.222-.536-.557-.827-.145-.28.396.002.69.368.88.644.334 1.264.764 1.95.959.587.167 1.232.553 1.87.173.79-.47 1.361-2.386.923-3.223-.611-1.166-.678-2.239.346-3.191 1.725-1.605 2.978-3.582 4.362-5.455 1.285-1.738 1.958-3.786 2.697-5.775.317-.85.75-1.777.582-2.742-.207-1.183-.348-2.346.003-3.526.07-.234.158-.555-.314-.588-1.992-.139-4-.47-5.975-.109a14.952 14.952 0 0 1-7.021-.388c-2.67-.801-5.33-1.414-8.106-1.339-3.163.086-6.25-.58-9.38-.81-1.468-.11-2.96-.311-4.415-.327-1.396-.015-2.798-.36-4.21-.052-.498.108-1.048-.027-1.682-.055.329.472.936.346 1.043.85l.017-.019Z" mask="url(#b)"/></g><path fill="#F68A45" d="M186.41 17.852c.127 1.546 1.037 2.77 1.436 4.204.21.756.803 1.438 1.015 2.273.308 1.214.159 1.443-1.009 1.22-1.272-.243-2.403-.928-3.58-1.456-1.337-.6-2.638-1.296-4.093-2.019.084 1.326-.32 2.473-.109 3.662.079.441-.171.733-.44.983-.323.3-.553-.045-.761-.222-.493-.421-.88-.352-1.286.15-.5.618-.956.345-1.284-.208-.363-.612-.717-1.243-.973-1.91-.284-.744-.634-.615-1.007-.167-.371.447-.725.927-.993 1.447-.173.335-.29.27-.519.139-.232-.133-.457-.266-.184-.544.209-.214.228-.446.154-.694-.353-1.19-.38-2.429-.489-3.654-.054-.611-.207-.625-.713-.371-1.143.574-2.335 1.04-3.565 1.576-.07-.509.236-.512.413-.59 1.303-.578 2.744-.826 3.755-2.065.393-.48 1.289-.02 1.319.659.038.867.408.97 1.04.654.223-.11.486-.144.541.088.252 1.067 1.293 1.54 1.637 2.526.12.344.39.554.642.777.179.158.431.117.428-.074-.015-.963.74-1.662.661-2.696-.12-1.545.455-2.016 1.94-1.839.83.1 1.66.412 2.282.955.691.604 1.51.555 2.323 1.006-.902-2.794-.836-5.535-.857-8.271-.004-.431.159-.431.41-.347.328.109.639.272 1.022.512-1.087-.107-1.023.672-1.03 1.331-.02 2.352.007 4.705.987 6.891.276.616-.269.526-.395.467-.755-.355-1.568-.547-2.293-1-.966-.602-1.93-1.192-3.174-.864-.507.134-.804.293-.737.802.18 1.35-.567 2.457-.796 3.697-.088.473-.485.514-.735.224-.814-.944-1.612-1.91-2.328-2.936-.236-.338-.385-.548-.803-.567-1.027-.047-1.167-.2-1.41-1.192-.065 1.434.092 2.847.355 4.254.677-.116.828-.788 1.254-1.135.55-.45.932-.365 1.147.331.25.812.478 1.62 1.072 2.257.351.375.651.464.908-.036.387-.755.834-.706 1.366-.195.106.102.243.168.464.317.117-1.336.5-2.54.297-3.829-.093-.59.19-.959.791-.712.404.166.786.395 1.166.643 1.859 1.21 3.865 2.118 5.955 2.776.912.288.99.164.74-.85-.368-1.501-1.25-2.78-1.683-4.264a6.948 6.948 0 0 1-.273-2.114M125 6c3.088.108 5.99.703 8.86 1.626 1.998.644 4.167.773 6.203 1.375 1.523.45 3.14.602 4.623 1.19.262.103.51.13.79.145 1.975.107 3.947.288 5.924.35 1.03.03 2.075-.249 3.099-.186 1.913.118 3.795-.52 5.732-.085.476.106 1.16-.176 1.717-.331a2.547 2.547 0 0 1 1.345-.02c1.497.371 3.088.336 4.707.983-2.93.1-5.57 1.195-8.403.904 1.992-.26 3.991-.462 6.013-.937-2.026-.639-4-.45-5.977-.306-2.558.188-5.13.1-7.69.33-1.243.111-2.527.025-3.772-.122-1.933-.23-3.866-.395-5.756-.995-1.958-.62-4.014-.996-6.017-1.518-1.01-.263-2.155-.26-3.153-.623-2.56-.931-5.238-1.255-7.943-1.493-.127-.011-.24-.042-.302-.287M28 162c21.493-4.136 43.181-5.445 65-4.872-21.796-.244-43.487 1.035-65 4.872M101 150.994c-3.09-.07-6.183-.115-9.277.006 1.465-.475 2.992-.192 4.312-.362-13.462-2.496-27.271-2.216-41.035-2.63 15.399-.07 30.774.225 46 2.986M0 149.441c2.523-.99 5.126-1.641 7.71-2.378-1.9.905-3.912 1.403-5.862 2.168C17.19 146.835 32.598 147.026 48 147c-16.003.353-32.023.212-47.931 3L0 149.441M165 36c-.168.695-.546 1.223-1.008 1.665-3.283 3.143-5.305 6.934-6.354 11.399-.867 3.69-2.415 7.19-3.673 10.77-1.093 3.11-2.81 5.84-4.46 8.628-.631 1.067-.868 2.278-1.295 3.538-.453-.62-.048-1.093.053-1.558.38-1.755 1.438-3.168 2.4-4.616 1.624-2.445 2.603-5.179 3.649-7.894 1.636-4.246 2.862-8.622 4.25-12.947.879-2.738 2.659-4.996 4.728-6.997.625-.605 1.143-1.322 1.71-1.988M60.535 170.37c-1.206.8-2.643 1.143-3.938 1.771-.906.44-1.817.862-2.65 1.527.918-.17 1.847-.3 2.752-.52 5.243-1.271 10.538-2.325 15.847-3.313 2.795-.52 5.61-.946 8.42-1.383 3.155-.49 6.315-.946 9.473-1.413.184-.027.374-.016.561-.022l-.015-.017c-.606.492-1.383.44-2.09.527-3.675.447-7.308 1.123-10.96 1.69-2.604.406-5.197.877-7.79 1.348-4.455.81-8.866 1.812-13.269 2.846-.756.177-1.512.356-2.274.504-.51.098-1.033.162-1.602-.104.64-.79 1.563-1.1 2.404-1.48 1.426-.643 2.908-1.176 4.351-1.787a1.72 1.72 0 0 1 .806-.15l-.026-.023"/><path fill="#F68A45" d="M146 12c-2.23-.284-4.459-.66-6.587-1.466-1.65-.624-3.331-.985-5.09-.952-1.005.02-1.947-.29-2.912-.538-2.066-.53-4.134-1.06-6.196-1.591-2.947-.759-5.846-1.994-9.181-1.607 1-.67-.092-.507-.032-.846 2.337.325 4.7.3 7.087.46-.49.375-.489.357-1.217.312-.414-.026-.814-.311-1.42-.021.93.292 1.701.63 2.505.768 1.832.315 3.533 1.101 5.337 1.49 2.763.598 5.5 1.357 8.358 1.373 1.323.007 2.498.663 3.691 1.145 1.046.424 2.144.543 3.213.748.84.162 1.62.47 2.444.725M116 158.429l-8.466.571c1.105-.415 2.291-.226 3.401-.664-5.957-.037-11.915.168-17.935.041.58-.435 21.78-.585 23 .052M151 16.106c-1.265.554-2.484.593-3.641.736-2.115.261-3.77 1.28-5.248 2.684-1.822 1.729-3.927 2.654-6.463 2.445-1.547-.128-3.114.15-4.648-.302 1.66.196 3.314-.017 4.971.007 1.65.024 3.141-.257 4.474-1.415 1.054-.916 2.174-1.763 3.202-2.716a.763.763 0 0 1 .313-.17c2.208-.575 4.377-1.34 6.695-1.375.057 0 .114.034.345.106M67 138c.779-.643 1.7-.282 2.565-.373 1.427-.15 2.877-.12 4.318-.19 3.045-.148 6.101.04 9.146-.221.81-.07 1.62-.15 2.432-.2.212-.013.566-.092.537.283-.02.285-.312.19-.517.197-3.876.117-7.751.197-11.628.265-1.992.035-3.986.122-5.98.117-.291 0-.582.08-.873.122M212 34.96c-.39.16-.481-.195-.662-.383-1.368-1.421-2.859-2.726-3.969-4.387-.397-.593-1.121-.905-1.772-1.239-2.923-1.502-5.118-3.74-6.642-6.598-.497-.933-1.303-1.561-1.938-2.353l-.017.019c.825.139 1.322.733 1.687 1.368 1.789 3.119 4.01 5.783 7.35 7.412.402.195.86.389 1.23.791 1.337 1.45 2.463 3.086 3.973 4.388.3.258.802.462.722 1.018l.038-.037ZM180 177c-1.355-.431-2.855-.242-4.145-1.122-.696-.474-1.652-.636-2.515-.851-3.53-.88-7.152-1.223-10.764-1.625-1.193-.132-2.382-.302-3.576-.402 7.18.429 14.314 1.099 21 4M146 164c-6.992-.48-13.997-.683-21-1 7.003.005 14.006-.019 21 1M30 143c-6.68 1.243-13.425 2.242-20 4 6.501-2.043 13.253-2.989 20-4M21.457 163.396c2.094-.04 4.02-1.174 6.171-1.182-.343.537-.832.408-1.234.471-1.771.28-3.44 1.1-5.234 1.222-.4.026-1.047.31-1.153-.268-.084-.461.59-.366.92-.483C24.562 161.87 28.262 160.855 32 160c-3.524 1.093-7.077 2.071-10.543 3.396M125.016 171c.271-.55.73-.55 1.091-.563 2.26-.077 4.507-.454 6.76-.66 2.832-.26 5.667-.445 8.497-.737.798-.082 1.603-.012 2.636-.012-.77.443-1.356.244-1.924.293-2.504.219-5.008.43-7.51.677-3.188.314-6.374.66-9.565.986a.602.602 0 0 1 .015.016M30 141.78 47.953 139l.047.271L30.023 142a87.743 87.743 0 0 0-.023-.22M120.986 171c-.274.695-.895.407-1.31.46-3.269.414-6.528.915-9.788 1.412a9.596 9.596 0 0 1-2.335.094c-.248-.023-.509-.094-.55-.404-.036-.28.217-.364.403-.465.69-.372 1.319-.925 2.327-.933l-2.235 1.21.038.281c4.518-.18 8.968-1.186 13.464-1.634l-.014-.021ZM145 165c1.378-.797 2.84-.363 4.274-.64-.723-.089-1.446-.176-2.17-.264 2.318-.334 4.593.297 6.896.488-3 .286-6.006.124-9 .416M98.02 165.962c.956-.578 2.029-.5 3.047-.67 3.806-.64 7.645-.917 11.474-1.29.149-.015.306.08.459.125l-.015-.022c-1.2.505-2.465.466-3.708.546-3.272.211-6.51.767-9.76 1.21-.5.068-1.005.229-1.517.073l.02.028ZM64 138c-5.026.497-10.028 1.135-15 2 4.924-1.234 9.956-1.677 15-2M159 13c-3.314-.781-6.691-.156-10-.948 3.354-.096 6.706-.183 10 .948M93 161c4.627-.908 9.263-1.76 14-2-4.699.471-9.336 1.318-14 2M152 171.362l-7.625.862.01.263h1.381c-.777.751-1.859.685-2.766-.25 3.06-1 6.045-.673 8.98-1.237l.02.362M187.54 57 186 51.143c.606.222 1.057.284 1.401.774.235.333.587.783 1.037.566.39-.188.151-.699.19-1.065.015-.14-.125-.303.06-.418.04.038.105.07.11.11.07.647.49 1.49-.138 1.868-.568.342-1.047-.407-1.448-.853-.151-.168-.3-.275-.44-.189-.268.164-.151.485-.085.703.351 1.162.57 2.373 1.062 3.48.152.342.152.61-.21.881M93.03 77c-.078-.27-.008-.334.279-.401 2.413-.568 4.864-.872 7.308-1.219.742-.105 1.444-.607 2.383-.259-3.163.792-6.254 1.1-9.3 1.68-.229.043-.492-.045-.67.195V77ZM170 26c-.648 3.055-1.925 5.829-4 9 1.551-2.914 3.058-5.845 4-9M153 171.72c2.384-.401 4.826-.246 7.27-.944-.357-.43-.784-.166-1.019-.566.186-.387.41-.14.604-.037.394.21 1.16-.173 1.145.56-.015.698-.789.6-1.23.65-2.243.251-4.491.42-6.737.617l-.033-.28M144 69c.309-.8.882-1.334 1.625-1.805 1.753-1.113 2.592-2.831 3.06-4.74.043-.175.091-.343.315-.455-.172 3.338-2.829 5.013-5 7M168 63c-1.126-1.03-.51-2.267-1.334-3.114-.98.289-.759 1.33-1.666 1.89.333-1.036.912-1.783 1.482-2.525.423-.55.653-.06.813.185.672 1.028.693 2.156.705 3.564M148 169.12c3.367-.223 6.698-.239 10 .88-3.349-.087-6.685-.741-10-.88"/><path fill="#F68A45" d="M112.014 163.933c.397-.688.944-.364 1.393-.396 2.631-.192 5.258-.657 7.898-.508.172.01.359-.093.695.607-1.658 0-3.117.035-4.575-.008-1.812-.054-3.608.613-5.425.277l.014.028M165.903 61c-.067.163-.148.26-.122.311.736 1.477-.653 2.851-.247 4.313.05.177-.06.39-.311.375-.3-.018-.218-.256-.195-.421.15-1.034.11-2.097.493-3.094.132-.344-.056-.635-.047-.955.008-.251.013-.397.429-.529M76 152.319 67 154c2.953-1.027 5.979-1.33 8.968-2l.032.319M176.006 58.024c.484 1.275.37 2.657.57 3.983.15.994.458 1.966.408 2.993l.016-.015c-.05-.005-.142 0-.145-.016-.425-2.277-.851-4.554-.855-6.895 0-.025.023-.05.035-.074l-.03.024M101 66.948c-2.336.355-4.62-1.25-7-.165.155-.619.498-.712.928-.754 1.588-.157 3.113.368 4.664.614.472.074.939.202 1.408.305M97.982 165.037c-1.048.497-2.25.309-3.37.49-1.25.2-2.528.35-3.802.467-.265.024-.54-.032-.81-.051l.014.015c1.154-.358 2.385-.446 3.58-.538 1.47-.113 2.901-.578 4.406-.365l-.018-.018M103 68.215 98 69c.515-.773 3.168-1.323 5-.785M118.992 14.95c-1.328 0-2.66.079-3.982-.057-.326-.033-1.109.472-1-.463.115-.982.708.019 1.094.054 1.298.118 2.597.215 3.896.32l-.008.146M93 77.582c-.683-.14-1.235.575-1.998.598.355.442.59.193.83.177-.535.764-1.169.66-1.831.604-.015-.57.183-.922.449-1.063.63-.333 1.276-.582 1.916-.866.32-.142.474.214.633.555l.001-.005M120 10.925c-.709.241-1.369-.166-2.036-.3-1.13-.226-2.218-.344-3.317.161-.176.081-.548.373-.635-.073-.09-.46.35-.346.543-.413 1.874-.642 3.668-.173 5.43.648l.015-.023ZM128 167c-2.36.273-4.659.74-7 1 2.275-.634 4.654-.792 7-1M53.99 148.05c-1.666-.008-3.335.021-4.99-.1h5l-.01.1M149 172.315c1.989-.704 3.996-.12 6 .685l-6-.685M176.339 35c-.667-2.026-.299-4.02.661-6-.249 2.003-.535 4.003-.661 6M64.94 167c.067.183.115.376-.069.478-1.607.888-3.183 1.89-4.871 2.49l.023.032c.489-.681 1.16-.885 1.783-1.186a22.464 22.464 0 0 0 3.135-1.81V167M198 23.017l4 3.71-.294.273c-1.006-1.538-2.98-2.187-3.687-4l-.019.017M158 45a99.697 99.697 0 0 0 2-5c-.458 1.74-.926 3.478-2 5M152 55l-2 5c.28-1.797 1.051-3.446 2-5M187.148 74c.488 1.24.46 2.455.829 3.58.063.196-.004.365-.188.413-.197.05-.225-.173-.232-.282-.08-1.143-.296-2.263-.555-3.376-.015-.062.06-.144.146-.335M55 156l-5 1c1.606-.662 3.302-.837 5-1M128 13.168c.582-.336 1.102-.077 1.578 0 .7.114 1.439.018 2.105.309.211.092.416.208.265.427-.152.221-.284 0-.433-.07-.892-.422-1.899-.358-2.854-.518-.199-.033-.424.06-.661-.148M90.992 150.279l-5.975.721-.017-.228 6-.772-.008.279M104 74.758l4.946-.758.054.18-4.918.82-.082-.242ZM124 21.215c-.99.231-2.065-.154-2.952.785-.112-.53-.058-.83.476-.87.83-.065 1.655-.298 2.476.085M167.743 42c.031-.68.049-1.347-.115-2.01-.068-.275-.058-.552-.404-.518-.156.015-.266-.06-.208-.263.048-.17.214-.234.322-.2.255.08.594.242.603.52.024.824.199 1.681-.198 2.471M113 66c-1.619.833-3.322.748-5 1 1.629-.74 3.326-.648 5-1M198 22.98c-1.253-.702-2.086-1.888-3-2.98 1.204.76 2.218 1.738 2.98 3l.02-.02M191 17l-4-1.985c.701-.134 2.409.627 4 1.985M190 77c-1.103-.814-.904-1.925-1.905-2.455-.236-.126.021-.322.195-.43.412-.256.684-.044.87.234.506.756.523 1.615.84 2.651M38 159.183l-3.955.817-.045-.183 3.955-.817.045.183M84 162.205l-3.949.795-.051-.173 3.98-.827.02.205M125 62.015c1.411.135 2.768.406 4 .985l-.019-.021c-1.047.035-1.954-.38-2.925-.581-.35-.073-.894.046-1.036-.398l-.02.015ZM185.98 65c-.281-.953-1.663-1.872-.557-3 .243.216.652.44.159.664-.352.16-.421.32-.26.485.228.233.186-.255.453-.094.306.184.142.43.181.64.082.43.025.87.025 1.305M114 170c1.217-.66 2.595-.87 4-1l-4 1M101 66h3l-.007.86c-1.005.313-2.006.134-2.993-.86M95 78.926c.51-.323 1.096-.387 1.564-.824.11-.103.251-.16.373-.013.094.113.08.267-.024.334-.593.38-1.195.735-1.913.503M156 36l-1.766 3-.234-.219c.568-1.02 1.145-2.03 2-2.781M177.033 65.014V69c-.113-.209-.067-.599-.056-.82.054-1.058-.112-2.132.065-3.18l-.009.014M120 11.022c1.02.218 2.054.356 3 .978-.976-.435-2.104-.065-2.986-1l-.014.022M92 79.967c.606-.717 1.27-1.05 2-.95-.658.373-1.254 1.152-2 .95M187.783 50 187 47c.485.941.808 1.93 1 2.96l-.217.04M68.018 167c.789-.685 1.973-.692 2.982-1-.915.477-1.95.743-3 .986l.018.014ZM176 54c-.944-1-1.197-1.984-.854-3l.854 3M204 28a25.527 25.527 0 0 0 2 2c-.996-.228-1.602-.974-2-2M121.013 170.326c1.327-.143 2.654-.632 3.987-.04.003.008-.019-.038-.014-.027-1.324.076-2.652 1.617-3.985.018l.012.05M168.559 44c-1.299-.716.056-1.339.173-2 .866.689-.69 1.336-.173 2M68.984 167.05c-.986.33-1.845 1.22-2.983.87l-.001.002c.686-.02 1.226-.525 1.857-.736.387-.13.744-.275 1.143-.117l-.016-.02M127 13c-.96-.56-2.042-.425-3-1 1.042.089 2.105.062 3 1M175.014 54c.546.97.727 1.987.93 3l.056-.028c-.96-.904-1.044-1.928-.986-2.972M115 73c-.586.544-1.225.746-2 1 .665-.918 1.366-.769 2-1M113 170c.533-.524 1.141-.762 2-1-.706.825-1.409.685-2 1M125.02 94c-.105-.353.224-.332.434-.412 1.715-.66 3.251-1.605 4.724-2.609.91-.62 1.609-1.488 2.45-2.199.39-.33.747-.765 1.372-.78-2.027 1.573-3.645 3.57-6.055 4.749-.951.466-1.855 1.014-2.925 1.251M84 44.953c-1.068.248-1.875-.561-2.88-.574-.043 0-.138-.162-.117-.204.103-.209.297-.2.485-.132.839.3 1.675.606 2.512.91M86 45.942c-.724.269-1.345-.453-2-.896.724-.286 1.304.844 2 .896M95 41.015c1.079-.134 1.989.654 3 .948-1.094.224-1.99-.626-3-.948M145.999 117c.03 2.179-.411 4.335-.966 6.469-.189.726-.379 1.446-.485 2.186-.027.193-.083.395-.359.334-.292-.064-.172-.24-.12-.43.442-1.638.903-3.273 1.282-4.924.275-1.2.436-2.423.648-3.635M150.05 113v4c-.09-1.42-.17-2.695 0-4M146.097 114c.105-.918-.572-1.881.626-3 .85 1.178-.514 2.064-.626 3M103.995 99c-.082.695-.714.756-1.118 1.04-2.147 1.514-4.325 2.98-6.551 4.503.386.082.667-.224 1.041-.008-.976.484-1.912.952-2.852 1.41-.177.085-.392.092-.487-.123-.11-.25.127-.336.269-.43 1.306-.87 2.616-1.731 3.926-2.593 1.925-1.267 3.851-2.531 5.777-3.797l-.005-.002ZM102 89c-1.87.713-3.715 1.483-5.615 2.121-1.541.518-3.022 1.161-4.563 1.673-.262.087-.668.385-.794.052-.157-.414.381-.263.622-.353 1.211-.45 2.402-.955 3.637-1.34C97.52 90.453 99.624 89.44 102 89M99 92.205c-1.992.783-3.739 1.78-5.508 2.733-.175.094-.314.086-.43-.059-.155-.194.013-.309.15-.366 1.654-.686 3.188-1.61 4.796-2.385.227-.108.546-.256.992.077M98 106c1.133-1.443 3.042-1.659 3.96-3 .363.63-1.819 2.339-3.96 3M103.004 99c1.313-.7 2.533-1.561 3.996-2-1.368.605-2.338 1.9-4 1.999l.004.001M127 100.075c-1.951 1.352-3.305 3.248-5.117 4.683-.425.337-.828.743-1.117 1.193-1.74 2.706-3.918 5.058-6.123 7.397-1.555 1.649-2.96 3.431-4.58 5.026-.194.192-.399.375-.612.546-.131.104-.316.116-.413-.02-.113-.16.052-.257.169-.351 2.019-1.635 3.546-3.71 5.263-5.616 1.378-1.53 2.918-2.919 4.138-4.584.572-.78 1.15-1.556 1.728-2.331 1.251-1.677 3.004-2.871 4.422-4.388.445-.475.952-.896 1.444-1.327.191-.168.365-.434.798-.228M130 109c1.445-2.601 2.805-5.235 3.994-8 .166.766-3.012 7.211-3.994 8M126 109c-.5 1.247-1.457 2.224-2.252 3.291-.643.862-1.467 1.603-2.212 2.396-.126.134-.185.48-.469.217-.17-.157.021-.328.157-.457 1.758-1.683 3.24-3.576 4.776-5.447M127 105c.383-1.047 1.126-1.961 1.794-2.895.212-.297.375-.623.641-.897.109-.112.23-.27.432-.183.213.09.137.24-.001.358-1.246 1.063-1.804 2.458-2.866 3.617M165.07 110c.956 3.17 1.967 6.08 3.238 8.91.543 1.211.556 2.505.692 3.78.006.059-.11.13-.273.31-.138-4.039-2.454-7.378-3.39-11.09-.143-.567-.483-1.105-.267-1.91M164.995 110c-.64-2.924-1.509-5.802-1.995-9 .484.98 2.101 8.332 1.995 9M166.46 135.73l.45-.66c.188.424.067.688-.22.87a.374.374 0 0 1-.537-.155A12.62 12.62 0 0 1 165 132c.91 1.067.623 2.516 1.46 3.73M170 120c-.91-1.569-1.852-3.125-2-5 .407 1.771 1.397 3.308 2 5M162 93.975c-.813-1.51-1.067-3.191-.985-4.975-.107 1.794.738 3.305.964 5l.021-.025ZM161 94.02c1.211 1.222 1.553 2.611 2 3.98-.524-1.357-1.66-2.6-1.965-4l-.035.02M174 121c.458.595.82 1.246 1 2-.44-.606-.816-1.248-1-2M187.206 114c.328.324.687.609.96.96 1.991 2.554 3.841 5.205 5.495 7.99.016.026.038.05.046.078.09.322.532.776.12.939-.462.182-.373-.425-.51-.725-.731-1.602-1.712-3.063-2.72-4.5-1.019-1.451-1.965-2.971-3.386-4.101-.12-.096-.164-.3-.21-.464-.01-.034.123-.109.205-.177M193 119c1.553 1.157.997 3.452 3 3.996-1.219.095-2.406-1.527-3-3.996M202 114c1.027.964 2.042 1.946 3 3-1.204-.745-2.144-1.82-3-3M197 119c.411.504.285 1.049.457 1.49.138.353.253.718.4 1.067.057.136.26.246.05.394-.166.119-.295.007-.345-.177-.234-.865-.566-1.71-.562-2.774M200 112c-.96-.891-1.938-1.777-2-3 .8.95 1.266 2.025 2 3M126 41c.728.232 1.443.52 2.186.686 1.48.328 2.975.586 4.462.88.145.028.406-.018.342.25-.044.185-.224.217-.42.155-1.7-.541-3.47-.738-5.211-1.083-.532-.105-1.048-.255-1.359-.888M127 38.267c.94-.195 1.79.067 2.627-.227.424-.149.862.145 1.245.39.22.141.118.324-.022.471-.132.138-.333.139-.35-.042-.069-.736-.557-.418-.867-.4-.59.034-1.176.171-1.766.235-.31.033-.653.068-.867-.427M128 35c-1.513-.184-2.935-.354-4.355-.534-.242-.031-.518-.058-.64-.254-.023-.037.044-.139.106-.166.276-.121.441.026.692.108 1.115.363 2.368.338 3.534.584.202.042.46-.016.663.262M139 45c.734-1.32 2.143-1.818 3-3-.62 1.451-2.145 1.82-3 3M145 30.466c.722-.245 1.307-.608 2-.408-.487 1.123-1.03 1.22-2 .408M151 33.175c-.703.654-1.322 1.397-2 1.825l1.803-2 .197.175M59 73c.794 1.21 1.085 2.648 1.427 4.052.484 1.984.56 4.02.47 6.07-.063 1.435.527 2.653 1.103 3.878-.636-.763-1.168-1.604-1.28-2.667a19.021 19.021 0 0 1-.105-2.74c.09-2.195-.365-4.291-.949-6.335-.212-.742-.424-1.51-.666-2.258M58 72c-.7-.759-.954-1.736-.773-2.853.207-1.274.14-2.511-.116-3.757-.308-1.496.077-2.856.515-4.39.182.758-.008 1.297-.144 1.771-.367 1.283-.151 2.523.043 3.763.09.578.162 1.165.074 1.713-.214 1.325-.186 2.568.401 3.753M66.99 101c-1.598-2.428-1.263-5.317-1.99-8 .378.263 2.143 7.56 1.99 8M59.748 45c.445.798.22 1.627-.058 2.345-.294.761-.397 1.462-.22 2.236.028.129.217.34-.07.406-.34.078-.22-.205-.28-.373-.352-.994.161-1.878.36-2.79.13-.6.354-1.174.268-1.824M64 90l-2-3c.702.359 1.875 1.976 2 3M195 166c-.626 2.347-1.383 4.65-2 7 .218-2.483 1.15-4.728 2-7M197.98 161c-.518 1.063-1.033 2.128-1.887 3l-.093-.08c.748-.917.95-2.177 2-2.905l-.02-.015ZM199 168.069l-.761 2.931-.239-.073.77-2.927.23.069M198.016 161c.125-.787.484-1.435.984-2-.345.654-.432 1.465-1 1.986l.016.014M196 164.071c-.125.764-.697 1.267-1 1.929.113-.77.52-1.385.924-2l.076.071M193.079 158c-.132-.269-.092-.52.072-.747.574-.794 1.092-1.648 1.849-2.253-.496 1.123-1.446 1.863-1.922 3M123 57c1.151.131 1.367 1.143 1.955 1.71.155.15-.127.322-.277.285-.443-.11-.952-.041-1.354-.438.37-.177.65.157 1.052.007-.2-.691-.84-.974-1.376-1.564M142 76.999c.188-1.033 1.277-1.376 2-1.999-.178.616-.284 1.231-1.14 1.507-.387.124-.766.516-.86.492"/></g></svg>
