<svg xmlns="http://www.w3.org/2000/svg" width="26" height="27" viewBox="0 0 26 27"><g fill="#F68A45" fill-rule="nonzero"><path d="M2.158 27c-.566 0-1.109-.233-1.519-.649A2.166 2.166 0 0 1 0 24.821v-9.63c0-.576.23-1.126.64-1.542A2.173 2.173 0 0 1 2.157 13h9.684c.566 0 1.109.233 1.519.649.41.416.639.966.639 1.53v9.63c0 .576-.23 1.126-.64 1.555-.397.403-.94.636-1.518.636H2.158Zm-.53-1.64h10.744V14.652H1.628V25.36Z"/><path d="M14.16 26c-.567 0-1.11-.232-1.52-.648a2.19 2.19 0 0 1-.64-1.54v-9.623c0-.575.23-1.125.64-1.541A2.177 2.177 0 0 1 14.16 12h9.692c.567 0 1.11.232 1.52.648.41.416.628.966.628 1.528V23.8c0 .575-.23 1.125-.64 1.553a2.131 2.131 0 0 1-1.52.636h-9.692l.012.012Zm-.53-1.638h10.753v-10.7H13.629v10.7Z"/><path d="M4.158 14c-.566 0-1.109-.232-1.519-.648A2.192 2.192 0 0 1 2 11.812V2.188c0-.575.23-1.125.64-1.553A2.17 2.17 0 0 1 4.157 0h9.684c.566 0 1.109.232 1.519.648.41.416.639.966.639 1.54v9.623c0 .575-.23 1.125-.64 1.553-.397.404-.94.636-1.518.636H4.158Zm-.53-1.638h10.744v-10.7H3.64v10.7h-.012Z"/></g></svg>
