<svg xmlns="http://www.w3.org/2000/svg" width="10" height="33" viewBox="0 0 10 33"><path fill="#F68A45" fill-rule="nonzero" d="M6.521 10.144a2.233 2.233 0 0 1-.274-1.306V3.011h-2.49v5.896c.033.39-.043.779-.23 1.11-.087.16-.208.298-.34.424a1.383 1.383 0 0 1-.45.264c-.23.103-.438.228-.635.377-.198.16-.362.332-.516.538a3.459 3.459 0 0 0-.406.71c-.11.275-.197.55-.252.836v17.62c-.022.274.022.549.12.8.088.161.22.287.385.356.197.08.405.114.614.091h5.319c.274 0 .559 0 .833-.045.274-.023.527-.15.713-.355.143-.218.22-.493.197-.756V13.384c-.11-1.672-.965-2.153-1.623-2.508a2.323 2.323 0 0 1-.954-.755l-.01.023ZM3.571 0h2.873c.198 0 .395.08.527.229.142.149.22.343.22.55v1.717a.49.49 0 0 1-.056.217v6.114a1.43 1.43 0 0 0 .132.801c.175.184.384.332.625.435.867.47 1.985 1.077 2.106 3.31V30.91c.022.481-.12.962-.406 1.34-.329.378-.768.63-1.261.687-.33.057-.658.069-.987.057H2.036a2.012 2.012 0 0 1-.965-.172 1.704 1.704 0 0 1-.834-.801 2.648 2.648 0 0 1-.23-1.27V12.993c.077-.366.186-.732.34-1.076.131-.32.307-.63.515-.904.198-.264.439-.493.691-.687a3.82 3.82 0 0 1 .823-.504c.076-.034.153-.08.219-.126a.533.533 0 0 0 .143-.172c.087-.194.131-.412.11-.63V2.68a.477.477 0 0 1-.034-.172V.79c0-.206.088-.412.23-.55a.723.723 0 0 1 .527-.229V0Zm2.72.939H3.714v1.087H6.29V.94Zm1.842 20.207v8.025c.022.424-.054.859-.219 1.248a1.612 1.612 0 0 1-.833.802l-.362-.86a.804.804 0 0 0 .394-.377c.11-.252.143-.527.121-.801v-8.06l.9.023Z"/></svg>
